<svg id="Group_783" data-name="Group 783" xmlns="http://www.w3.org/2000/svg" xmlns:xlink="http://www.w3.org/1999/xlink" width="547" height="274.954" viewBox="0 0 547 274.954">
  <defs>
    <clipPath id="clip-path">
      <rect id="Rectangle_430" data-name="Rectangle 430" width="547" height="274.954" fill="#f18382"/>
    </clipPath>
    <clipPath id="clip-path-3">
      <rect id="Rectangle_404" data-name="Rectangle 404" width="9.644" height="8.886" fill="#f18382"/>
    </clipPath>
    <clipPath id="clip-path-4">
      <rect id="Rectangle_405" data-name="Rectangle 405" width="4.479" height="6.355" fill="#f18382"/>
    </clipPath>
    <clipPath id="clip-path-5">
      <rect id="Rectangle_406" data-name="Rectangle 406" width="19.138" height="41.851" fill="#f18382"/>
    </clipPath>
    <clipPath id="clip-path-6">
      <rect id="Rectangle_407" data-name="Rectangle 407" width="0.151" height="0.312" fill="#f18382"/>
    </clipPath>
    <clipPath id="clip-path-7">
      <rect id="Rectangle_408" data-name="Rectangle 408" width="10.702" height="5.638" fill="#f18382"/>
    </clipPath>
    <clipPath id="clip-path-8">
      <rect id="Rectangle_409" data-name="Rectangle 409" width="14.9" height="8.066" fill="#f18382"/>
    </clipPath>
    <clipPath id="clip-path-9">
      <rect id="Rectangle_410" data-name="Rectangle 410" width="5.669" height="6.913" fill="#f18382"/>
    </clipPath>
    <clipPath id="clip-path-10">
      <rect id="Rectangle_411" data-name="Rectangle 411" width="77.933" height="7.115" fill="#f18382"/>
    </clipPath>
    <clipPath id="clip-path-11">
      <rect id="Rectangle_412" data-name="Rectangle 412" width="77.934" height="7.114" fill="#f18382"/>
    </clipPath>
    <clipPath id="clip-path-12">
      <rect id="Rectangle_413" data-name="Rectangle 413" width="9.972" height="7.848" fill="#f18382"/>
    </clipPath>
    <clipPath id="clip-path-13">
      <rect id="Rectangle_414" data-name="Rectangle 414" width="141.799" height="100.915" fill="#f18382"/>
    </clipPath>
    <clipPath id="clip-path-14">
      <rect id="Rectangle_415" data-name="Rectangle 415" width="0.223" height="0.094" fill="#f18382"/>
    </clipPath>
    <clipPath id="clip-path-15">
      <rect id="Rectangle_416" data-name="Rectangle 416" width="18.764" height="14.218" fill="#f18382"/>
    </clipPath>
    <clipPath id="clip-path-16">
      <rect id="Rectangle_417" data-name="Rectangle 417" width="19.891" height="16.901" fill="#f18382"/>
    </clipPath>
    <clipPath id="clip-path-17">
      <rect id="Rectangle_418" data-name="Rectangle 418" width="16.627" height="17.601" fill="#f18382"/>
    </clipPath>
    <clipPath id="clip-path-18">
      <rect id="Rectangle_419" data-name="Rectangle 419" width="11.847" height="18.953" fill="#f18382"/>
    </clipPath>
    <clipPath id="clip-path-19">
      <rect id="Rectangle_420" data-name="Rectangle 420" width="23.073" height="13.658" fill="#f18382"/>
    </clipPath>
    <clipPath id="clip-path-20">
      <rect id="Rectangle_421" data-name="Rectangle 421" width="30.047" height="18.414" fill="#f18382"/>
    </clipPath>
    <clipPath id="clip-path-21">
      <rect id="Rectangle_422" data-name="Rectangle 422" width="26.729" height="10.13" fill="#f18382"/>
    </clipPath>
    <clipPath id="clip-path-22">
      <rect id="Rectangle_423" data-name="Rectangle 423" width="16.207" height="7.157" fill="#f18382"/>
    </clipPath>
    <clipPath id="clip-path-23">
      <rect id="Rectangle_424" data-name="Rectangle 424" width="15.755" height="17.426" fill="#f18382"/>
    </clipPath>
    <clipPath id="clip-path-24">
      <rect id="Rectangle_425" data-name="Rectangle 425" width="87.129" height="2.452" fill="#f18382"/>
    </clipPath>
    <clipPath id="clip-path-25">
      <rect id="Rectangle_426" data-name="Rectangle 426" width="16.276" height="23.62" fill="#f18382"/>
    </clipPath>
    <clipPath id="clip-path-26">
      <rect id="Rectangle_427" data-name="Rectangle 427" width="3.905" height="5.809" fill="#f18382"/>
    </clipPath>
    <clipPath id="clip-path-27">
      <rect id="Rectangle_428" data-name="Rectangle 428" width="8.653" height="3.266" fill="#f18382"/>
    </clipPath>
  </defs>
  <g id="Group_782" data-name="Group 782" clip-path="url(#clip-path)">
    <g id="Group_781" data-name="Group 781">
      <g id="Group_780" data-name="Group 780" clip-path="url(#clip-path)">
        <path id="Path_846" data-name="Path 846" d="M224.457,230.046a.482.482,0,0,1-.426-.708,267.24,267.24,0,0,1,34.109-49.888.483.483,0,1,1,.73.632,266.309,266.309,0,0,0-33.985,49.707.483.483,0,0,1-.427.257" transform="translate(-19.218 -15.383)" fill="#f18382"/>
        <path id="Path_847" data-name="Path 847" d="M211.322,220.52a.482.482,0,0,1-.4-.757,286.862,286.862,0,0,1,34.323-40.828.483.483,0,0,1,.677.687,286,286,0,0,0-34.207,40.69.481.481,0,0,1-.4.208" transform="translate(-18.091 -15.341)" fill="#f18382"/>
        <path id="Path_848" data-name="Path 848" d="M144.944,185.946a.482.482,0,0,1-.073-.959,280.279,280.279,0,0,0,89.56-29.928.482.482,0,0,1,.455.85,281.222,281.222,0,0,1-89.868,30.031.5.5,0,0,1-.074.005" transform="translate(-12.395 -13.299)" fill="#f18382"/>
        <path id="Path_849" data-name="Path 849" d="M148.327,219.366a.483.483,0,0,1-.254-.893l85.7-53.059a.483.483,0,1,1,.508.821L148.58,219.293a.474.474,0,0,1-.253.072" transform="translate(-12.685 -14.187)" fill="#f18382"/>
        <path id="Path_850" data-name="Path 850" d="M18.768,165.742a.451.451,0,0,1-.45-.424,4.65,4.65,0,0,0-1.454-3.107,2.791,2.791,0,0,0-1.555-.794,3.866,3.866,0,0,0-1.709.361,4.48,4.48,0,0,0-2.3,1.585.45.45,0,0,1-.65.112A22.488,22.488,0,0,1,6.4,159.363a.451.451,0,0,1,.069-.622,5.865,5.865,0,0,0,2-3.415,2.481,2.481,0,0,0-.016-1.207A2.783,2.783,0,0,0,6.87,152.64a9.56,9.56,0,0,0-2.686-.825.449.449,0,0,1-.375-.519,30.934,30.934,0,0,1,1.763-6.266.45.45,0,0,1,.57-.259c1.1.392,3.743.368,4.763-.847a5.062,5.062,0,0,0,.635-5.275.451.451,0,0,1,.218-.585,36.446,36.446,0,0,1,4.73-1.581c.578-.169,1.171-.342,1.762-.519a.45.45,0,0,1,.563.551,5.021,5.021,0,0,0,2.415,2.94,4.907,4.907,0,0,0,6.377-1.185.45.45,0,0,1,.327-.165.459.459,0,0,1,.341.133,43.69,43.69,0,0,1,4.677,5.544.451.451,0,0,1-.1.625,4.888,4.888,0,0,0-1.874,4.874,5.237,5.237,0,0,0,3.8,3.8.45.45,0,0,1,.318.564,26.443,26.443,0,0,1-2.6,5.972.451.451,0,0,1-.565.182c-1.367-.591-2.693-1.087-3.883-.677a3.5,3.5,0,0,0-1.986,2.142,11.2,11.2,0,0,0-.52,2.709c-.024.208-.047.419-.072.631a.451.451,0,0,1-.357.387,35.847,35.847,0,0,1-6.33.751h-.012m-3.649-5.236c.092,0,.185,0,.278.013a3.617,3.617,0,0,1,2.082,1.033,5.562,5.562,0,0,1,1.7,3.276,34.951,34.951,0,0,0,5.435-.656c.011-.1.023-.2.034-.3a11.877,11.877,0,0,1,.572-2.927,4.346,4.346,0,0,1,2.536-2.677,5.893,5.893,0,0,1,4.166.547,25.613,25.613,0,0,0,2.179-5,6.13,6.13,0,0,1-4-4.344,5.831,5.831,0,0,1,1.874-5.519,42.677,42.677,0,0,0-4-4.742,5.8,5.8,0,0,1-7.15,1.044A6.261,6.261,0,0,1,18,136.981c-.421.124-.84.247-1.253.367-1.629.475-3.179.927-4.212,1.359a5.843,5.843,0,0,1-.933,5.8c-1.234,1.47-3.861,1.583-5.334,1.24a30.045,30.045,0,0,0-1.487,5.263,10.359,10.359,0,0,1,2.487.824,3.563,3.563,0,0,1,2.051,2.016,3.319,3.319,0,0,1,.045,1.643,6.8,6.8,0,0,1-1.982,3.655,21.715,21.715,0,0,0,3.468,3.338,5.846,5.846,0,0,1,2.435-1.544,5.2,5.2,0,0,1,1.841-.43" transform="translate(-0.326 -11.664)" fill="#f18382"/>
        <path id="Path_851" data-name="Path 851" d="M21.155,156.709a5.049,5.049,0,0,1-4.024-1.991,4.022,4.022,0,0,1-.751-1.7,4.509,4.509,0,0,1,.118-1.833,5.983,5.983,0,0,1,2.393-3.571,4.352,4.352,0,0,1,4.319-.335,5.258,5.258,0,0,1,2.733,4.416,4.981,4.981,0,0,1-3.284,4.772,4.687,4.687,0,0,1-1.5.243m.24-8.958a3.673,3.673,0,0,0-2.009.613,5.081,5.081,0,0,0-2.015,3.035,3.639,3.639,0,0,0-.1,1.47,3.111,3.111,0,0,0,.587,1.314,4.161,4.161,0,0,0,4.514,1.43,4.052,4.052,0,0,0,2.673-3.88,4.345,4.345,0,0,0-2.246-3.655,3.051,3.051,0,0,0-1.4-.327" transform="translate(-1.401 -12.6)" fill="#f18382"/>
        <g id="Group_707" data-name="Group 707" transform="translate(16.697 137.003)" opacity="0.129">
          <g id="Group_706" data-name="Group 706">
            <g id="Group_705" data-name="Group 705" clip-path="url(#clip-path-3)">
              <path id="Path_852" data-name="Path 852" d="M27.886,152.3a4.444,4.444,0,0,0-.544-1.93,1.291,1.291,0,0,0-2.261,1.126,2.455,2.455,0,0,1,.014.895,5.717,5.717,0,0,1-.41,1.317c-.012.027-.024.053-.039.09-.761,1.4-.7,1.114-.951,1.339a2.932,2.932,0,0,1-1.107.38c-.274.022-1.012.091-1.253.088-.144,0-.345-.016-.485-.028a2.965,2.965,0,0,1-.378-.091,1.447,1.447,0,0,0-.911-.142A1.511,1.511,0,0,0,19,158.134a7.575,7.575,0,0,0,4.337.5,5.457,5.457,0,0,0,2.01-.936,4.761,4.761,0,0,0,1.378-1.449,6.441,6.441,0,0,0,1.164-3.951" transform="translate(-18.264 -149.861)" fill="#f18382"/>
            </g>
          </g>
        </g>
        <g id="Group_710" data-name="Group 710" transform="translate(29.785 141.473)" opacity="0.129">
          <g id="Group_709" data-name="Group 709">
            <g id="Group_708" data-name="Group 708" clip-path="url(#clip-path-4)">
              <path id="Path_853" data-name="Path 853" d="M34.529,155.68a7.445,7.445,0,0,1-1.114,2.375c-.151.214-.293.433-.449.645a1.513,1.513,0,0,0-.386.975,1.449,1.449,0,0,0,2.689.728,11.974,11.974,0,0,0,1.742-4.039,1.287,1.287,0,0,0-2.481-.684" transform="translate(-32.58 -154.751)" fill="#f18382"/>
            </g>
          </g>
        </g>
        <path id="Path_854" data-name="Path 854" d="M185.213,123.109a4.429,4.429,0,0,1-.773-.069,4,4,0,0,1-3.372-4.522,3.721,3.721,0,0,1,1.677-2.486,4.225,4.225,0,0,1,3.047-.6,4,4,0,0,1,3.372,4.522,3.724,3.724,0,0,1-1.678,2.487,4.173,4.173,0,0,1-2.273.664m-.194-6.84a3.28,3.28,0,0,0-1.785.519,2.831,2.831,0,0,0-1.279,1.888,3.1,3.1,0,0,0,2.642,3.478,3.326,3.326,0,0,0,2.4-.465,2.831,2.831,0,0,0,1.28-1.888,3.1,3.1,0,0,0-2.643-3.477,3.5,3.5,0,0,0-.614-.055" transform="translate(-15.531 -9.899)" fill="#f18382"/>
        <path id="Path_855" data-name="Path 855" d="M168.273,150.019a4.3,4.3,0,0,1-.766-.069,3.869,3.869,0,1,1,4.724-3.082,3.942,3.942,0,0,1-3.958,3.15m-.181-6.839a3.04,3.04,0,0,0-3.07,2.407,3.221,3.221,0,1,0,3.68-2.353,3.481,3.481,0,0,0-.61-.054m3.7,3.61h0Z" transform="translate(-14.078 -12.208)" fill="#f18382"/>
        <path id="Path_856" data-name="Path 856" d="M150.75,132.174a4.428,4.428,0,0,1-.773-.069,4.223,4.223,0,0,1-2.655-1.61,3.7,3.7,0,0,1,.96-5.4,4.227,4.227,0,0,1,3.047-.6,4,4,0,0,1,3.372,4.522,3.724,3.724,0,0,1-1.677,2.486,4.172,4.172,0,0,1-2.274.665m-.194-6.84a3.273,3.273,0,0,0-1.785.52,2.8,2.8,0,0,0-.73,4.1,3.4,3.4,0,0,0,4.492.8,2.828,2.828,0,0,0,1.28-1.887,3.1,3.1,0,0,0-2.642-3.478,3.515,3.515,0,0,0-.615-.055" transform="translate(-12.574 -10.677)" fill="#f18382"/>
        <path id="Path_857" data-name="Path 857" d="M134.032,149.39a4.384,4.384,0,0,1-.766-.068,3.869,3.869,0,1,1,4.724-3.082,3.942,3.942,0,0,1-3.958,3.149m-.181-6.838a3.04,3.04,0,0,0-3.07,2.406,3.221,3.221,0,1,0,3.68-2.352,3.473,3.473,0,0,0-.61-.054m3.7,3.61h0Z" transform="translate(-11.14 -12.154)" fill="#f18382"/>
        <path id="Path_858" data-name="Path 858" d="M170.93,141.709a.45.45,0,0,1-.379-.692l11.634-18.31a.45.45,0,0,1,.76.483L171.31,141.5a.451.451,0,0,1-.38.208" transform="translate(-14.628 -10.511)" fill="#f18382"/>
        <path id="Path_859" data-name="Path 859" d="M164.324,143.418a.45.45,0,0,1-.327-.141l-10.652-11.246a.45.45,0,1,1,.654-.619l10.652,11.246a.45.45,0,0,1-.326.76" transform="translate(-13.147 -11.263)" fill="#f18382"/>
        <path id="Path_860" data-name="Path 860" d="M136.7,142.1a.45.45,0,0,1-.316-.771l10.35-10.2a.45.45,0,1,1,.633.641l-10.35,10.2a.448.448,0,0,1-.316.13" transform="translate(-11.691 -11.24)" fill="#f18382"/>
        <path id="Path_861" data-name="Path 861" d="M410.078,177.1h-.009a.451.451,0,0,1-.4-.252,18.557,18.557,0,0,0-2.087-3.33.45.45,0,1,1,.708-.557,19.436,19.436,0,0,1,1.793,2.722l2.334-4.344a.45.45,0,0,1,.794.426l-2.739,5.1a.45.45,0,0,1-.4.237" transform="translate(-34.964 -14.681)" fill="#f18382"/>
        <path id="Path_862" data-name="Path 862" d="M410.078,191.751h-.009a.451.451,0,0,1-.4-.252,18.556,18.556,0,0,0-2.087-3.33.45.45,0,1,1,.708-.557,19.515,19.515,0,0,1,1.793,2.722l2.334-4.343a.45.45,0,0,1,.794.426l-2.739,5.1a.45.45,0,0,1-.4.237" transform="translate(-34.964 -15.938)" fill="#f18382"/>
        <path id="Path_863" data-name="Path 863" d="M408.982,206.4h-.009a.451.451,0,0,1-.4-.252,18.553,18.553,0,0,0-2.087-3.329.451.451,0,0,1,.709-.557,19.51,19.51,0,0,1,1.792,2.722l2.334-4.344a.45.45,0,0,1,.794.426l-2.739,5.1a.45.45,0,0,1-.4.237" transform="translate(-34.87 -17.195)" fill="#f18382"/>
        <path id="Path_864" data-name="Path 864" d="M423.071,177.779q-1.98,0-3.952-.017a.45.45,0,0,1,0-.9h0c7.885.07,15.879-.071,23.757-.421a.45.45,0,1,1,.039.9c-6.58.293-13.241.44-19.853.44" transform="translate(-35.923 -15.139)" fill="#f18382"/>
        <path id="Path_865" data-name="Path 865" d="M423.082,192.145q-1.986,0-3.964-.018a.45.45,0,0,1,0-.9h0c7.884.071,15.877-.07,23.757-.421h.02a.45.45,0,0,1,.02.9c-6.579.293-13.236.44-19.842.44" transform="translate(-35.923 -16.372)" fill="#f18382"/>
        <path id="Path_866" data-name="Path 866" d="M423.457,206.516q-1.98,0-3.952-.017a.45.45,0,0,1,0-.9h0c7.885.069,15.879-.071,23.757-.421a.45.45,0,1,1,.04.9c-6.581.293-13.242.44-19.854.44" transform="translate(-35.956 -17.605)" fill="#f18382"/>
        <g id="Group_713" data-name="Group 713" transform="translate(70.536 85.228)" opacity="0.129">
          <g id="Group_712" data-name="Group 712">
            <g id="Group_711" data-name="Group 711" clip-path="url(#clip-path-5)">
              <path id="Path_867" data-name="Path 867" d="M95.969,104.426a1.054,1.054,0,0,0-1.536.163,1.853,1.853,0,0,0-.251.949c-.012.091-.024.183-.037.273-.064.281-.276,1.209-.355,1.419q.2-.409-.015.036a18.194,18.194,0,0,1-1.857,3.785,11.759,11.759,0,0,1-1.569,2.366c-1.039,1.282-3.9,3.684-5.546,5.769-.483.592-1.545,1.938-1.7,2.17l-.011.013a15.024,15.024,0,0,0-1.706,2.21c-.913,1.612-.832,1.585-1.412,2.75a6.726,6.726,0,0,0-.834,2.575,1.111,1.111,0,0,0,.035.179,1.949,1.949,0,0,0-.25,1.684c.519,1.579.515,3.41.386,6.308-.151,3.009.048,1.855-.821,4.572a6.244,6.244,0,0,1-.866,1.787,2.269,2.269,0,0,0-.444.961,1.429,1.429,0,0,0,.981,1.624,4.249,4.249,0,0,0,.479-.29c.676-.478,1.339-.969,2.032-1.43.345-.23.691-.46,1.033-.694a15.294,15.294,0,0,0,1.252-3.37c.469-2.464.591-2.934,1.06-5.646a13.965,13.965,0,0,0,.009-3.548,3.754,3.754,0,0,0-.7-2.2l0,0-.457.055c-.264.029-.528.056-.794.078a21.925,21.925,0,0,1,4.165-7.93c1.361-1.483,2.877-2.846,4.317-4.266a19.643,19.643,0,0,0,3.515-4.26c.512-1.092.428-.988.761-1.779.054-.128-.027.037-.075.137.192-.389.368-.785.538-1.183a7.794,7.794,0,0,0,.548-1.907.137.137,0,0,0,.01-.03c.26-1.277.772-2.632.11-3.33" transform="translate(-77.157 -104.166)" fill="#f18382"/>
            </g>
          </g>
        </g>
        <g id="Group_716" data-name="Group 716" transform="translate(73.247 117.303)" opacity="0.129">
          <g id="Group_715" data-name="Group 715">
            <g id="Group_714" data-name="Group 714" clip-path="url(#clip-path-6)">
              <path id="Path_868" data-name="Path 868" d="M80.121,128.625l.113-.226c.012-.028.026-.058.037-.086l-.151.312" transform="translate(-80.121 -128.313)" fill="#f18382"/>
            </g>
          </g>
        </g>
        <path id="Path_869" data-name="Path 869" d="M74.79,148.577a14.641,14.641,0,0,1-2.017-.143c-1.64-.232-5.6-1.1-6.869-4.1a8.51,8.51,0,0,1-.472-3.324c-.011-1.884-.02-3.342-.028-4.8s-.02-2.917-.03-4.8a.451.451,0,0,1,.5-.45,152,152,0,0,0,16.572.232.451.451,0,0,1,.49.41,32.575,32.575,0,0,1-.589,10.631,8.28,8.28,0,0,1-1.667,4.2c-1.55,1.751-4,2.146-5.89,2.146M66.278,131.9c.008,1.648.017,2.976.027,4.3.008,1.459.017,2.917.028,4.8a7.694,7.694,0,0,0,.4,2.978c.759,1.792,3.064,3.124,6.166,3.563s5.769-.2,7.106-1.709a7.409,7.409,0,0,0,1.454-3.761,31.692,31.692,0,0,0,.615-9.956c-3.25.206-12.287.08-15.8-.219" transform="translate(-5.609 -21.236)" fill="#f18382"/>
        <path id="Path_870" data-name="Path 870" d="M80.408,128.11a.463.463,0,0,1-.079-.006.451.451,0,0,1-.366-.522c.721-4.095,3.755-7.345,6.688-10.488,2.715-2.909,5.524-5.918,6.4-9.531a20.941,20.941,0,0,0-1.2-10.727,13.876,13.876,0,0,0-5.083-6.653c-4.1-2.7-11.15-4.63-16.705-3.1-5.3,1.456-9.62,4.185-12.181,7.685A15.751,15.751,0,0,0,55.01,106.04,20.161,20.161,0,0,0,60.1,116.824c.395.448.817.9,1.226,1.327a24.656,24.656,0,0,1,2.47,2.9,11.512,11.512,0,0,1,2.061,6.287.45.45,0,0,1-.9.019,10.606,10.606,0,0,0-1.9-5.8,24.067,24.067,0,0,0-2.382-2.788c-.415-.437-.843-.89-1.249-1.35a21.05,21.05,0,0,1-5.305-11.269,16.641,16.641,0,0,1,3.031-11.915c2.68-3.663,7.179-6.512,12.669-8.022,5.814-1.6,13.174.409,17.439,3.218A14.752,14.752,0,0,1,92.679,96.5a21.975,21.975,0,0,1,1.243,11.274c-.927,3.843-3.818,6.94-6.612,9.934-2.975,3.187-5.785,6.2-6.46,10.03a.45.45,0,0,1-.442.372" transform="translate(-4.632 -17.349)" fill="#f18382"/>
        <path id="Path_871" data-name="Path 871" d="M76.642,128.985h-.005a.45.45,0,0,1-.444-.456v-.066c.037-3.878.226-7.931.562-12.044a20.591,20.591,0,0,1,.838-4.919,6.485,6.485,0,0,1-3.159-1.938c-.108-.124-.212-.253-.311-.386q-.224.395-.469.782c-1.039,1.643-2.182,2.493-3.5,2.6a3.739,3.739,0,0,1-1.081-.08,32.428,32.428,0,0,1,.788,3.161,56.4,56.4,0,0,1,1.113,12.715.441.441,0,0,1-.462.438.449.449,0,0,1-.438-.462,55.553,55.553,0,0,0-1.1-12.511,28.982,28.982,0,0,0-.963-3.672c-.174-.069-.342-.142-.506-.213-1.867-.822-3.933-1.908-5.1-3.738a1.868,1.868,0,0,1-.148-2.213,1.9,1.9,0,0,1,2.046-.491,3.678,3.678,0,0,1,1.518,1.073,14.24,14.24,0,0,1,2.9,4.885,3.426,3.426,0,0,0,1.357.211c1.012-.082,1.931-.8,2.807-2.183q.362-.573.676-1.165a10.552,10.552,0,0,1-1.135-4.4,7.209,7.209,0,0,1,1.136-4.93,1.278,1.278,0,0,1,1.319-.6,1.241,1.241,0,0,1,.688.547,6.2,6.2,0,0,1,.593,4.675,18.006,18.006,0,0,1-1.574,4.669,5.96,5.96,0,0,0,.516.689,5.541,5.541,0,0,0,2.8,1.689c.021-.047.041-.093.063-.14a10.561,10.561,0,0,1,4.012-4.494,1.9,1.9,0,0,1,1.241-.368,1.159,1.159,0,0,1,.921.638,2.349,2.349,0,0,1-.185,2.034,6.327,6.327,0,0,1-3.434,3.125,4.926,4.926,0,0,1-2.047.209,19.043,19.043,0,0,0-.836,4.829c-.335,4.092-.523,8.123-.559,11.981v.068a.451.451,0,0,1-.451.444m-13.006-22.7a.85.85,0,0,0-.663.253c-.281.357.082.987.2,1.171a10.022,10.022,0,0,0,4.4,3.262,12.82,12.82,0,0,0-2.4-3.792,2.867,2.867,0,0,0-1.137-.831,1.283,1.283,0,0,0-.4-.063m15.211,4.506a3.99,3.99,0,0,0,1.407-.193,5.464,5.464,0,0,0,2.931-2.712,1.49,1.49,0,0,0,.165-1.187.26.26,0,0,0-.229-.15,1.156,1.156,0,0,0-.653.239,9.677,9.677,0,0,0-3.621,4m-4.2-11.532a.629.629,0,0,0-.357.275,6.154,6.154,0,0,0-.952,4.322,10.468,10.468,0,0,0,.741,3.428,17.112,17.112,0,0,0,1.214-3.84,5.174,5.174,0,0,0-.455-4c-.092-.137-.144-.175-.173-.182l-.017,0" transform="translate(-5.317 -18.439)" fill="#f18382"/>
        <path id="Path_872" data-name="Path 872" d="M100.326,91.141a.451.451,0,0,1-.228-.839l4.749-2.772a.8.8,0,0,1,.967-.02.487.487,0,0,1,.184.437c-.044.4-.046.414-5.471,3.146a.444.444,0,0,1-.2.048" transform="translate(-8.57 -17.496)" fill="#f18382"/>
        <path id="Path_873" data-name="Path 873" d="M67.061,80.824a.451.451,0,0,1-.413-.271L64.33,75.227a.45.45,0,0,1,.826-.359l2.318,5.326a.45.45,0,0,1-.233.592.444.444,0,0,1-.179.037" transform="translate(-5.516 -16.401)" fill="#f18382"/>
        <path id="Path_874" data-name="Path 874" d="M49.7,94.19a.461.461,0,0,1-.093-.01l-5.215-1.1a.847.847,0,0,1-.7-.545.489.489,0,0,1,.129-.483c.261-.254.391-.383,6.009,1.255a.45.45,0,0,1-.125.882" transform="translate(-3.747 -17.885)" fill="#f18382"/>
        <path id="Path_875" data-name="Path 875" d="M42.625,116.719a.45.45,0,0,1-.184-.861l5.408-2.416a.45.45,0,1,1,.368.822l-5.408,2.416a.455.455,0,0,1-.184.039" transform="translate(-3.619 -19.73)" fill="#f18382"/>
        <path id="Path_876" data-name="Path 876" d="M84.7,80.736a.441.441,0,0,1-.159-.029.45.45,0,0,1-.262-.581l1.908-5.044a.45.45,0,0,1,.842.319l-1.907,5.044a.451.451,0,0,1-.421.291" transform="translate(-7.229 -16.417)" fill="#f18382"/>
        <path id="Path_877" data-name="Path 877" d="M107.257,112.483a.442.442,0,0,1-.169-.033l-5.256-2.13a.45.45,0,0,1,.338-.835l5.256,2.13a.45.45,0,0,1-.169.868" transform="translate(-8.713 -19.391)" fill="#f18382"/>
        <path id="Path_878" data-name="Path 878" d="M493.946,269.857a2.031,2.031,0,1,1,2.031-2.031,2.034,2.034,0,0,1-2.031,2.031m0-3.451a1.419,1.419,0,1,0,1.42,1.42,1.421,1.421,0,0,0-1.42-1.42" transform="translate(-42.208 -22.806)" fill="#f18382"/>
        <path id="Path_879" data-name="Path 879" d="M450.739,238.54a2.99,2.99,0,1,1,2.989-2.989,2.994,2.994,0,0,1-2.989,2.989m0-5.079a2.089,2.089,0,1,0,2.089,2.09,2.092,2.092,0,0,0-2.089-2.09" transform="translate(-38.418 -19.954)" fill="#f18382"/>
        <path id="Path_880" data-name="Path 880" d="M171.833,247.324a5.832,5.832,0,1,1,5.63-5.829,5.739,5.739,0,0,1-5.63,5.829m0-10.692A4.867,4.867,0,1,0,176.5,241.5a4.772,4.772,0,0,0-4.664-4.863" transform="translate(-14.261 -20.221)" fill="#f18382"/>
        <path id="Path_881" data-name="Path 881" d="M4.894,280.811a2.99,2.99,0,1,1,2.99-2.99,2.993,2.993,0,0,1-2.99,2.99m0-5.079a2.089,2.089,0,1,0,2.09,2.089,2.091,2.091,0,0,0-2.09-2.089" transform="translate(-0.163 -23.581)" fill="#f18382"/>
        <path id="Path_882" data-name="Path 882" d="M280.731,279.568a2.99,2.99,0,1,1,2.99-2.99,2.994,2.994,0,0,1-2.99,2.99m0-5.079a2.089,2.089,0,1,0,2.089,2.089,2.091,2.091,0,0,0-2.089-2.089" transform="translate(-23.831 -23.475)" fill="#f18382"/>
        <path id="Path_883" data-name="Path 883" d="M140.618,178.633a3.2,3.2,0,1,1,3.2-3.2,3.207,3.207,0,0,1-3.2,3.2m0-5.443a2.239,2.239,0,1,0,2.239,2.239,2.242,2.242,0,0,0-2.239-2.239" transform="translate(-11.79 -14.777)" fill="#f18382"/>
        <path id="Path_884" data-name="Path 884" d="M523.891,267.895a3.214,3.214,0,1,1,3.214-3.213,3.218,3.218,0,0,1-3.214,3.213m0-5.816a2.6,2.6,0,1,0,2.6,2.6,2.6,2.6,0,0,0-2.6-2.6" transform="translate(-44.675 -22.435)" fill="#f18382"/>
        <path id="Path_885" data-name="Path 885" d="M451.428,142.7a4.731,4.731,0,1,1,4.731-4.731,4.737,4.737,0,0,1-4.731,4.731m0-8.561a3.83,3.83,0,1,0,3.83,3.83,3.835,3.835,0,0,0-3.83-3.83" transform="translate(-38.328 -11.432)" fill="#f18382"/>
        <path id="Path_886" data-name="Path 886" d="M4.731,128.773a4.731,4.731,0,1,1,4.731-4.731,4.736,4.736,0,0,1-4.731,4.731m0-8.561a3.83,3.83,0,1,0,3.83,3.83,3.835,3.835,0,0,0-3.83-3.83" transform="translate(0 -10.237)" fill="#f18382"/>
        <path id="Path_887" data-name="Path 887" d="M370.548,171.578h-.011a.45.45,0,0,1-.439-.462l.31-12.535a.439.439,0,0,1,.462-.439.449.449,0,0,1,.439.461L371,171.139a.45.45,0,0,1-.45.439" transform="translate(-31.755 -13.569)" fill="#f18382"/>
        <path id="Path_888" data-name="Path 888" d="M377.5,166.024h-.02l-11.664-.516a.45.45,0,0,1-.431-.469.439.439,0,0,1,.47-.43l11.664.516a.45.45,0,0,1-.019.9" transform="translate(-31.351 -14.124)" fill="#f18382"/>
        <path id="Path_889" data-name="Path 889" d="M21.917,208.05h-.011a.452.452,0,0,1-.44-.462l.311-12.535a.45.45,0,1,1,.9.022l-.311,12.535a.45.45,0,0,1-.45.439" transform="translate(-1.842 -16.698)" fill="#f18382"/>
        <path id="Path_890" data-name="Path 890" d="M28.872,202.5h-.02l-11.664-.516a.45.45,0,1,1,.039-.9l11.664.515a.45.45,0,0,1-.019.9" transform="translate(-1.438 -17.253)" fill="#f18382"/>
        <path id="Path_891" data-name="Path 891" d="M277.038,251.2h-.022a.45.45,0,0,1-.428-.471c.2-4.1.2-8.258-.006-12.358a.45.45,0,0,1,.9-.044c.2,4.129.206,8.316.006,12.445a.451.451,0,0,1-.45.429" transform="translate(-23.731 -20.412)" fill="#f18382"/>
        <path id="Path_892" data-name="Path 892" d="M285.539,250.35h-.012a.452.452,0,0,1-.44-.462c.174-6.9.292-13.9.351-20.81a.45.45,0,0,1,.451-.446h0a.45.45,0,0,1,.447.454c-.059,6.913-.177,13.92-.351,20.824a.451.451,0,0,1-.449.439" transform="translate(-24.461 -19.617)" fill="#f18382"/>
        <path id="Path_893" data-name="Path 893" d="M294.651,251.312a.451.451,0,0,1-.45-.429c-.243-5.124-.272-10.322-.087-15.448a.45.45,0,1,1,.9.032c-.185,5.1-.155,10.274.087,15.373a.45.45,0,0,1-.428.471h-.022" transform="translate(-25.225 -20.164)" fill="#f18382"/>
        <path id="Path_894" data-name="Path 894" d="M328.431,290.457a.449.449,0,0,1-.308-.122l-5.2-4.884a.45.45,0,1,1,.615-.656l5.2,4.883a.45.45,0,0,1,.02.636.445.445,0,0,1-.327.143" transform="translate(-27.695 -24.426)" fill="#f18382"/>
        <path id="Path_895" data-name="Path 895" d="M322.724,291.85a.45.45,0,0,1-.363-.718,56.529,56.529,0,0,1,6.28-7.153.45.45,0,1,1,.624.649,55.685,55.685,0,0,0-6.18,7.038.447.447,0,0,1-.361.183" transform="translate(-27.652 -24.355)" fill="#f18382"/>
        <path id="Path_896" data-name="Path 896" d="M322.724,291.85a.45.45,0,0,1-.363-.718,56.529,56.529,0,0,1,6.28-7.153.45.45,0,1,1,.624.649,55.685,55.685,0,0,0-6.18,7.038.447.447,0,0,1-.361.183" transform="translate(-27.652 -24.355)" fill="#f18382"/>
        <path id="Path_897" data-name="Path 897" d="M465.019,153.87a.559.559,0,0,1-.376-.974l19.321-17.524a.561.561,0,0,1,.667-.064l14.772,8.965,28.281-29.993a.558.558,0,0,1,.687-.1l11.135,6.427L564.7,94.537a.56.56,0,0,1,.805.777l-25.5,26.383a.557.557,0,0,1-.682.1l-11.13-6.424-28.287,30a.559.559,0,0,1-.7.094l-14.8-8.982-19.012,17.243a.558.558,0,0,1-.376.145" transform="translate(-39.852 -8.097)" fill="#f18382"/>
        <path id="Path_898" data-name="Path 898" d="M572.127,103.836a.559.559,0,0,1-.559-.557,21.011,21.011,0,0,1,1.444-7.734,48.685,48.685,0,0,1-7.634,2.567.56.56,0,1,1-.268-1.087,47.5,47.5,0,0,0,8.753-3.088.559.559,0,0,1,.741.747,19.851,19.851,0,0,0-1.917,8.59.56.56,0,0,1-.557.562Z" transform="translate(-48.451 -8.056)" fill="#f18382"/>
        <path id="Path_899" data-name="Path 899" d="M514.7,146.076a.559.559,0,0,1-.424-.923l16.837-19.631a.559.559,0,1,1,.849.729L515.129,145.88a.558.558,0,0,1-.425.2" transform="translate(-44.115 -10.753)" fill="#f18382"/>
        <path id="Path_900" data-name="Path 900" d="M477.806,155.179a.559.559,0,0,1-.389-.962c2.623-2.53,5.154-5.217,7.523-7.989a.559.559,0,1,1,.85.727c-2.392,2.8-4.948,5.513-7.6,8.068a.56.56,0,0,1-.389.156" transform="translate(-40.949 -12.53)" fill="#f18382"/>
        <path id="Path_901" data-name="Path 901" d="M395.141,289.973h-8.062a.45.45,0,0,1-.451-.45v-11.4a.45.45,0,0,1,.451-.451h8.062a.451.451,0,0,1,.451.451v11.4a.451.451,0,0,1-.451.45m-7.612-.9h7.163v-10.5h-7.163" transform="translate(-33.174 -23.825)" fill="#f18382"/>
        <path id="Path_902" data-name="Path 902" d="M410.783,289.283H402.72a.451.451,0,0,1-.45-.451V270.085a.451.451,0,0,1,.45-.451h8.063a.451.451,0,0,1,.451.451v18.747a.451.451,0,0,1-.451.451m-7.613-.9h7.163V270.534H403.17Z" transform="translate(-34.516 -23.135)" fill="#f18382"/>
        <path id="Path_903" data-name="Path 903" d="M425.591,287.04h-8.063a.45.45,0,0,1-.45-.451V243.946a.449.449,0,0,1,.45-.45h8.063a.45.45,0,0,1,.451.45v42.644a.451.451,0,0,1-.451.451m-7.613-.9h7.163V244.4h-7.163Z" transform="translate(-35.786 -20.893)" fill="#f18382"/>
        <path id="Path_904" data-name="Path 904" d="M432.3,288.043h0a.451.451,0,0,1-.449-.453l.09-19.569a.45.45,0,0,1,.45-.449h0a.451.451,0,0,1,.449.453l-.091,19.57a.45.45,0,0,1-.45.448" transform="translate(-37.054 -22.958)" fill="#f18382"/>
        <path id="Path_905" data-name="Path 905" d="M440.992,288.91h0a.451.451,0,0,1-.447-.454l.091-10.333a.45.45,0,1,1,.9.008l-.09,10.333a.45.45,0,0,1-.45.446" transform="translate(-37.8 -23.825)" fill="#f18382"/>
        <path id="Path_906" data-name="Path 906" d="M346.53,238.041a.146.146,0,0,1-.044-.006.15.15,0,0,1-.1-.187,226.55,226.55,0,0,1,7.823-21.582.15.15,0,0,1,.277.117,226.035,226.035,0,0,0-7.813,21.553.151.151,0,0,1-.143.106" transform="translate(-29.72 -18.548)" fill="#f18382"/>
        <path id="Path_907" data-name="Path 907" d="M350.28,239.483a.14.14,0,0,1-.043-.006.15.15,0,0,1-.1-.186,117.073,117.073,0,0,1,8.084-20.025.15.15,0,1,1,.266.138,116.869,116.869,0,0,0-8.063,19.972.149.149,0,0,1-.143.107" transform="translate(-30.042 -18.807)" fill="#f18382"/>
        <path id="Path_908" data-name="Path 908" d="M348.876,254.557a.149.149,0,0,1-.137-.21l5.671-13.055a.15.15,0,1,1,.275.12l-5.671,13.055a.15.15,0,0,1-.138.09" transform="translate(-29.922 -20.696)" fill="#f18382"/>
        <path id="Path_909" data-name="Path 909" d="M357.016,252.013a.15.15,0,0,1-.138-.208l3.164-7.492a.151.151,0,0,1,.2-.08.149.149,0,0,1,.08.2l-3.164,7.493a.15.15,0,0,1-.138.091" transform="translate(-30.62 -20.955)" fill="#f18382"/>
        <path id="Path_910" data-name="Path 910" d="M363.488,225.25a.165.165,0,0,1-.047-.007.15.15,0,0,1-.1-.189l1.509-4.6a.15.15,0,1,1,.285.093l-1.509,4.6a.151.151,0,0,1-.143.1" transform="translate(-31.175 -18.906)" fill="#f18382"/>
        <path id="Path_911" data-name="Path 911" d="M370.012,225.913a.166.166,0,0,1-.055-.01.15.15,0,0,1-.085-.195,122.309,122.309,0,0,1,5.272-11.619.15.15,0,1,1,.266.139,121.577,121.577,0,0,0-5.258,11.59.149.149,0,0,1-.14.1" transform="translate(-31.735 -18.362)" fill="#f18382"/>
        <path id="Path_912" data-name="Path 912" d="M363.48,250.061a.142.142,0,0,1-.066-.016.15.15,0,0,1-.069-.2l14.391-29.136a.15.15,0,1,1,.269.133l-14.391,29.137a.15.15,0,0,1-.134.083" transform="translate(-31.175 -18.93)" fill="#f18382"/>
        <path id="Path_913" data-name="Path 913" d="M369.777,252.219a.142.142,0,0,1-.066-.016.149.149,0,0,1-.069-.2l9.66-19.823a.15.15,0,0,1,.27.132l-9.66,19.823a.151.151,0,0,1-.135.084" transform="translate(-31.715 -19.915)" fill="#f18382"/>
        <path id="Path_914" data-name="Path 914" d="M381.044,242.54a.149.149,0,0,1-.075-.02.151.151,0,0,1-.055-.2l4.253-7.365a.15.15,0,1,1,.26.151l-4.253,7.364a.15.15,0,0,1-.13.075" transform="translate(-32.682 -20.153)" fill="#f18382"/>
        <path id="Path_915" data-name="Path 915" d="M373.242,258.132a.151.151,0,0,1-.133-.219l1.921-3.682a.15.15,0,1,1,.266.139l-1.92,3.682a.151.151,0,0,1-.133.08" transform="translate(-32.012 -21.807)" fill="#f18382"/>
        <path id="Path_916" data-name="Path 916" d="M337.679,237.714a.151.151,0,0,1-.133-.218l2.606-5.129a.15.15,0,1,1,.267.136l-2.605,5.129a.152.152,0,0,1-.134.082" transform="translate(-28.961 -19.931)" fill="#f18382"/>
        <path id="Path_917" data-name="Path 917" d="M349.683,216.742a.15.15,0,0,1-.13-.226l1.921-3.287a.15.15,0,0,1,.26.151l-1.921,3.288a.151.151,0,0,1-.13.074" transform="translate(-29.991 -18.289)" fill="#f18382"/>
        <g id="Group_719" data-name="Group 719" transform="translate(337.488 233.958)" opacity="0.129">
          <g id="Group_718" data-name="Group 718">
            <g id="Group_717" data-name="Group 717" clip-path="url(#clip-path-7)">
              <path id="Path_918" data-name="Path 918" d="M376.836,256.158a15.952,15.952,0,0,1-3.713,1.028c-1.021.306-2.267.15-3.141.783-1.83,1.24-.315,4.111,1.82,3.5,2.56-.506,5.5-.611,7.5-2.414,1.571-1.68-.416-3.878-2.463-2.9" transform="translate(-369.163 -255.916)" fill="#f18382"/>
            </g>
          </g>
        </g>
        <path id="Path_919" data-name="Path 919" d="M365.621,258.715a.45.45,0,0,1-.415-.275,35.8,35.8,0,0,0-3.156-6.243,35.415,35.415,0,0,1-7.725-.069c-.74,1.24-1.447,2.5-2.193,3.838-.4.719-.816,1.458-1.251,2.222a.451.451,0,0,1-.548.2,22.315,22.315,0,0,1-9.352-6.441.45.45,0,0,1-.015-.563c1.325-1.744,2.692-3.544,4.162-5.756a30.794,30.794,0,0,1-4.28-7.108c-.671.127-1.342.261-2.018.395-1.823.364-3.709.74-5.738,1.006a.45.45,0,0,1-.492-.322c-1.14-3.968-.819-8.461.955-13.355a.451.451,0,0,1,.527-.284c2.67.634,5.428,1.289,8.308,1.947a59.4,59.4,0,0,1,4.173-6.9,47.335,47.335,0,0,1-4.063-5.76.45.45,0,0,1,.1-.569,38.655,38.655,0,0,1,10.415-6.148.45.45,0,0,1,.558.185,61.185,61.185,0,0,1,3.546,6.873,34.979,34.979,0,0,1,8.465-.29c1.229-2.217,2.507-4.5,4.113-6.891a.45.45,0,0,1,.571-.154,46.923,46.923,0,0,1,8.517,5.353c.712.564,1.412,1.152,2.09,1.721a2.162,2.162,0,0,1,.8,1.009.45.45,0,0,1-.068.38c-.6.843-1.21,1.662-1.852,2.529-.89,1.2-1.811,2.444-2.768,3.82.837,1.955,1.694,3.969,2.461,5.97a29.485,29.485,0,0,1,8.279,1.785.452.452,0,0,1,.288.391,23.074,23.074,0,0,1-1.576,10.276.442.442,0,0,1-.434.282l-.871-.033a54.066,54.066,0,0,0-6.522.027,23.7,23.7,0,0,1-4.1,6.214,55.869,55.869,0,0,1,3.5,6.479.451.451,0,0,1-.208.583,34.218,34.218,0,0,1-12.135,3.674l-.045,0m-3.354-7.451a.451.451,0,0,1,.37.195,34.024,34.024,0,0,1,3.268,6.323,33.284,33.284,0,0,0,11.1-3.354,59.668,59.668,0,0,0-3.444-6.267.45.45,0,0,1,.048-.531,22.823,22.823,0,0,0,4.269-6.462.449.449,0,0,1,.378-.28,52.941,52.941,0,0,1,6.907-.053l.551.02a22.142,22.142,0,0,0,1.414-9.3,29.28,29.28,0,0,0-8.04-1.649.451.451,0,0,1-.385-.289c-.815-2.148-1.746-4.325-2.647-6.43a.453.453,0,0,1,.044-.433c1.017-1.47,1.988-2.78,2.927-4.047.583-.788,1.138-1.536,1.685-2.3a3.224,3.224,0,0,0-.421-.4c-.674-.565-1.369-1.15-2.072-1.7a45.86,45.86,0,0,0-8-5.076c-1.545,2.331-2.788,4.576-3.993,6.75a.456.456,0,0,1-.44.234,34.131,34.131,0,0,0-8.872.311.45.45,0,0,1-.487-.266A60.374,60.374,0,0,0,353,209.51a37.881,37.881,0,0,0-9.527,5.608,49.3,49.3,0,0,0,4,5.581.45.45,0,0,1,.023.533,58.445,58.445,0,0,0-4.448,7.386.451.451,0,0,1-.507.247c-2.869-.655-5.615-1.3-8.273-1.935a20.612,20.612,0,0,0-.905,12.045c1.855-.259,3.6-.606,5.291-.943.8-.159,1.586-.316,2.378-.463a.448.448,0,0,1,.494.261,29.885,29.885,0,0,0,4.506,7.473.452.452,0,0,1,.034.54c-1.476,2.24-2.842,4.055-4.163,5.794a21.412,21.412,0,0,0,8.385,5.77q.546-.964,1.057-1.881c.8-1.427,1.553-2.776,2.354-4.106a.45.45,0,0,1,.43-.217,34.627,34.627,0,0,0,8.075.066.486.486,0,0,1,.062,0" transform="translate(-28.481 -17.865)" fill="#f18382"/>
        <path id="Path_920" data-name="Path 920" d="M361.308,239.946a7.661,7.661,0,0,1-2.936-.58,3.929,3.929,0,0,1-1.7-1.214,4.112,4.112,0,0,1-.682-2.158,8.232,8.232,0,0,1,1.674-6,5.84,5.84,0,0,1,6.064-1.955.451.451,0,0,1,.249.195c.056.016.114.033.172.051a5.79,5.79,0,0,1,3.976,5.071,6.3,6.3,0,0,1-3.13,5.623,7.284,7.284,0,0,1-3.681.969m.938-11.233a5.22,5.22,0,0,0-3.9,1.856,7.344,7.344,0,0,0-1.467,5.353,3.31,3.31,0,0,0,.506,1.692,3.069,3.069,0,0,0,1.328.922,6.646,6.646,0,0,0,5.814-.335,5.385,5.385,0,0,0,2.689-4.793,4.939,4.939,0,0,0-3.349-4.267c-.069-.022-.14-.041-.207-.06a1.075,1.075,0,0,1-.555-.277,4.052,4.052,0,0,0-.864-.09" transform="translate(-30.541 -19.547)" fill="#f18382"/>
        <g id="Group_722" data-name="Group 722" transform="translate(324.072 215.595)" opacity="0.129">
          <g id="Group_721" data-name="Group 721">
            <g id="Group_720" data-name="Group 720" clip-path="url(#clip-path-8)">
              <path id="Path_921" data-name="Path 921" d="M369.382,236.756a1.151,1.151,0,0,0-2.219-.145c-.368,1.082-.222.894-1.444,2.012-1.177.9-.75.632-2.583,1.27a4.013,4.013,0,0,1-3.051.242,8.174,8.174,0,0,1-1.827-.831,4.817,4.817,0,0,0-1.693-.79,1.769,1.769,0,0,0-1.18,3.275c3.057,2,6.13,2.9,9.621,1.25a7.864,7.864,0,0,0,3.768-4.376,3.957,3.957,0,0,0,.607-1.906" transform="translate(-354.488 -235.83)" fill="#f18382"/>
            </g>
          </g>
        </g>
        <g id="Group_725" data-name="Group 725" transform="translate(352.615 216.674)" opacity="0.129">
          <g id="Group_724" data-name="Group 724">
            <g id="Group_723" data-name="Group 723" clip-path="url(#clip-path-9)">
              <path id="Path_922" data-name="Path 922" d="M391.372,239.235c0-.021.006-.04.008-.061l-.008.058a2.135,2.135,0,0,0-.3-1.165,2.354,2.354,0,0,0-4.1.309c-.038.076-.082.163-.137.269a10.36,10.36,0,0,0-.418.992c-.115.251-.277.6-.373.794a2.257,2.257,0,0,0-.333,1.178c.03,2.694,4.022,3.209,4.786.622a9.277,9.277,0,0,0,.825-2.6,2.1,2.1,0,0,0,.051-.4" transform="translate(-385.71 -237.011)" fill="#f18382"/>
            </g>
          </g>
        </g>
        <path id="Path_923" data-name="Path 923" d="M338.82,204.945a.45.45,0,0,1-.279-.8,37.459,37.459,0,0,1,41.224-2.755.45.45,0,1,1-.459.774,36.323,36.323,0,0,0-40.207,2.688.452.452,0,0,1-.279.1" transform="translate(-29.033 -16.859)" fill="#f18382"/>
        <path id="Path_924" data-name="Path 924" d="M383.137,202.236c-.02,0-.041,0-.061,0a25.862,25.862,0,0,0-6.543-.064.45.45,0,1,1-.105-.894,26.9,26.9,0,0,1,5.558-.073l-1.18-1.281a10.694,10.694,0,0,1-2.354-3.348.45.45,0,1,1,.843-.315,9.874,9.874,0,0,0,2.173,3.053l2,2.171a.45.45,0,0,1-.331.755" transform="translate(-32.264 -16.814)" fill="#f18382"/>
        <path id="Path_925" data-name="Path 925" d="M323.367,237.647a.45.45,0,0,1-.45-.444,40.728,40.728,0,0,1,4.888-19.828.45.45,0,0,1,.792.429,39.826,39.826,0,0,0-4.779,19.387.452.452,0,0,1-.445.456Z" transform="translate(-27.707 -18.631)" fill="#f18382"/>
        <path id="Path_926" data-name="Path 926" d="M81.546,155.051a.45.45,0,0,1-.268-.813,22.875,22.875,0,0,0,8.868-21.259.45.45,0,1,1,.89-.132,23.8,23.8,0,0,1-9.225,22.116.449.449,0,0,1-.265.087" transform="translate(-6.958 -21.366)" fill="#f18382"/>
        <path id="Path_927" data-name="Path 927" d="M97.869,144.784a.358.358,0,0,1-.054,0,.45.45,0,0,1-.394-.5l1.105-9.261a.45.45,0,0,1,.894.107l-1.105,9.261a.45.45,0,0,1-.446.4" transform="translate(-8.359 -13.551)" fill="#f18382"/>
        <path id="Path_928" data-name="Path 928" d="M196.461,140.46a.45.45,0,0,1-.364-.715c5.578-7.684,11.464-15.3,17.492-22.633a.45.45,0,1,1,.7.572c-6.017,7.32-11.892,14.921-17.459,22.59a.449.449,0,0,1-.365.186" transform="translate(-16.818 -10.034)" fill="#f18382"/>
        <path id="Path_929" data-name="Path 929" d="M197.246,130.087a.451.451,0,0,1-.392-.672,58.881,58.881,0,0,1,5.292-7.812.451.451,0,0,1,.7.564,58.017,58.017,0,0,0-5.212,7.691.448.448,0,0,1-.391.229" transform="translate(-16.886 -10.419)" fill="#f18382"/>
        <path id="Path_930" data-name="Path 930" d="M59.668,203.119a.482.482,0,0,1-.471-.38,41.026,41.026,0,0,1,1.224-21.745.482.482,0,1,1,.914.308,40.061,40.061,0,0,0-1.195,21.233.483.483,0,0,1-.37.573.5.5,0,0,1-.1.011" transform="translate(-5 -15.502)" fill="#f18382"/>
        <path id="Path_931" data-name="Path 931" d="M48.742,202.242a.482.482,0,0,1-.474-.392L46.925,194.8a.483.483,0,0,1,.948-.181l1.343,7.052a.483.483,0,0,1-.384.564.5.5,0,0,1-.091.008" transform="translate(-4.026 -16.665)" fill="#f18382"/>
        <path id="Path_932" data-name="Path 932" d="M512.895,66.531c-5.071,0-10.08-.551-13.69-3.647a11.7,11.7,0,0,1-.1-17.079,11.7,11.7,0,0,1,9.1-2.581,11.914,11.914,0,0,1,7.427,3.645,14.268,14.268,0,0,1,4.448-8.934A17.621,17.621,0,0,1,532.758,32.9c7.468.278,14.81,5.444,18.44,12.787a7.794,7.794,0,0,1,2.639-4.329,9.777,9.777,0,0,1,8.6-2.181c5.18,1.361,8.259,6.451,8.859,11.161a10.623,10.623,0,0,1,8.176-3.16,10.365,10.365,0,0,1,8.677,4.552,8.419,8.419,0,0,1,1.324,5.246c-.424,4.126-4.367,6.909-7.85,7.749-2.369.57-5.686.622-6.588.27l-59.646,1.5c-.83.021-1.664.036-2.5.036m-6.264-22.5a10.489,10.489,0,0,0-6.938,2.452,10.8,10.8,0,0,0,.1,15.717c3.963,3.4,9.629,3.544,15.577,3.394l60.012-1.513.138,0a.445.445,0,0,1,.362.174,18.382,18.382,0,0,0,5.534-.406c3.185-.768,6.786-3.275,7.166-6.965a7.521,7.521,0,0,0-1.193-4.677,10.234,10.234,0,0,0-16.073-.457.451.451,0,0,1-.819-.24c-.2-4.666-3.107-10.1-8.284-11.461a8.86,8.86,0,0,0-7.784,1.99,6.407,6.407,0,0,0-2.416,5.525.451.451,0,0,1-.867.217c-3.137-7.944-10.712-13.694-18.419-13.981a16.7,16.7,0,0,0-12.017,4.783,13.1,13.1,0,0,0-4.222,9.5.45.45,0,0,1-.817.267,10.732,10.732,0,0,0-7.572-4.23,12.437,12.437,0,0,0-1.465-.087" transform="translate(-42.511 -2.822)" fill="#f18382"/>
        <g id="Group_728" data-name="Group 728" transform="translate(467.363 55.974)" opacity="0.129">
          <g id="Group_727" data-name="Group 727">
            <g id="Group_726" data-name="Group 726" clip-path="url(#clip-path-10)">
              <path id="Path_933" data-name="Path 933" d="M587.784,61.46l-.016.015a8.962,8.962,0,0,1-2.187,1.516,13.829,13.829,0,0,1-4.515.892c-1.9.107-3.8-.251-5.7-.258-5.11-.019-10.22.133-15.331.059-6.571.088-13.142.168-19.71.313-2.3.09-4.6.32-6.9.476-2.659.165-5.324.256-7.984.41-3.988.086-7.983.394-11.967.107-.646-.058-1.386-.271-1.886.271a1.285,1.285,0,0,0,.9,2.178,55.8,55.8,0,0,0,8.357.2c1.075-.017,2.151-.047,3.224-.08a.775.775,0,0,0,.7.41c3.263.265,6.543.125,9.811.236q11.523.387,23.043-.292c2.845-.154,5.693-.247,8.54-.363q1.5-.069,3-.142a1.106,1.106,0,0,0,.845-.243.738.738,0,0,0,.219-.534c1.834.018,3.669.027,5.5,0,.446,0,.922-.006,1.416-.017a.736.736,0,0,0,.366.675,1.532,1.532,0,0,0,.919.061c.548-.05,1.094-.118,1.639-.19a24.923,24.923,0,0,0,2.818-.593,4.985,4.985,0,0,0,1.209-.413.7.7,0,0,0,.307-.549,9.1,9.1,0,0,0,3.924-2.4c.31-.357.816-.649.822-1.168a.813.813,0,0,0-1.377-.57" transform="translate(-511.228 -61.228)" fill="#f18382"/>
            </g>
          </g>
        </g>
        <path id="Path_934" data-name="Path 934" d="M166.16,73.417c-5.072,0-10.08-.551-13.69-3.647a11.7,11.7,0,0,1-.1-17.079,11.7,11.7,0,0,1,9.1-2.581,11.909,11.909,0,0,1,7.426,3.645,14.274,14.274,0,0,1,4.449-8.934,17.616,17.616,0,0,1,12.68-5.038c7.469.278,14.811,5.444,18.441,12.787a7.8,7.8,0,0,1,2.638-4.329,9.779,9.779,0,0,1,8.6-2.181c5.18,1.361,8.259,6.451,8.859,11.161a10.622,10.622,0,0,1,8.176-3.16,10.365,10.365,0,0,1,8.677,4.552,8.419,8.419,0,0,1,1.324,5.246c-.425,4.126-4.367,6.909-7.85,7.749-2.37.57-5.686.622-6.588.27l-59.647,1.5c-.829.021-1.663.036-2.495.036m-6.265-22.5a10.488,10.488,0,0,0-6.937,2.452,10.8,10.8,0,0,0,.1,15.717c3.963,3.4,9.629,3.544,15.576,3.394l60.012-1.513.138,0a.445.445,0,0,1,.362.174,18.383,18.383,0,0,0,5.534-.406c3.185-.768,6.786-3.275,7.165-6.965a7.513,7.513,0,0,0-1.192-4.677,10.235,10.235,0,0,0-16.073-.457.45.45,0,0,1-.818-.24c-.2-4.666-3.107-10.1-8.284-11.461a8.86,8.86,0,0,0-7.784,1.99,6.407,6.407,0,0,0-2.416,5.525.451.451,0,0,1-.867.217c-3.138-7.944-10.712-13.694-18.419-13.98a16.7,16.7,0,0,0-12.018,4.782,13.1,13.1,0,0,0-4.221,9.5.451.451,0,0,1-.818.267A10.73,10.73,0,0,0,161.361,51a12.44,12.44,0,0,0-1.466-.087" transform="translate(-32.76 -13.413)" fill="#f18382"/>
        <g id="Group_731" data-name="Group 731" transform="translate(130.379 52.27)" opacity="0.129">
          <g id="Group_730" data-name="Group 730">
            <g id="Group_729" data-name="Group 729" clip-path="url(#clip-path-11)">
              <path id="Path_935" data-name="Path 935" d="M241.049,68.346l-.015.015a8.963,8.963,0,0,1-2.187,1.516,13.836,13.836,0,0,1-4.515.892c-1.9.107-3.8-.251-5.7-.258-5.11-.019-10.221.133-15.332.059-6.57.088-13.141.168-19.709.313-2.3.09-4.6.321-6.895.476-2.66.165-5.325.256-7.986.41-3.987.086-7.982.394-11.966.107-.645-.058-1.386-.271-1.886.272a1.285,1.285,0,0,0,.9,2.178,55.8,55.8,0,0,0,8.357.2c1.075-.017,2.15-.047,3.224-.08a.774.774,0,0,0,.7.41c3.263.265,6.542.125,9.811.236q11.524.387,23.043-.292c2.845-.154,5.693-.247,8.54-.363q1.5-.069,3-.142a1.106,1.106,0,0,0,.845-.243.741.741,0,0,0,.219-.534c1.834.018,3.669.027,5.5,0,.446,0,.922-.006,1.416-.017a.736.736,0,0,0,.366.675,1.532,1.532,0,0,0,.919.061c.548-.05,1.094-.118,1.639-.19a24.923,24.923,0,0,0,2.818-.593,4.986,4.986,0,0,0,1.209-.413.7.7,0,0,0,.307-.549,9.1,9.1,0,0,0,3.924-2.4c.31-.357.816-.649.822-1.168a.814.814,0,0,0-1.378-.57" transform="translate(-164.493 -68.114)" fill="#f18382"/>
            </g>
          </g>
        </g>
        <path id="Path_936" data-name="Path 936" d="M221.958,123.926a.482.482,0,0,1-.346-.818l41.074-42.36a.485.485,0,0,1,.486-.126l36.388,11.033a.483.483,0,0,1,.235.765L282.84,113.346a.479.479,0,0,1-.293.172l-60.507,10.4a.481.481,0,0,1-.081.007m41.216-42.3-39.84,41.086L282.2,112.6l16.388-20.228Z" transform="translate(-19.003 -6.916)" fill="#f18382"/>
        <path id="Path_937" data-name="Path 937" d="M284.124,203.11a.483.483,0,0,1-.408-.74l32.861-51.861a.481.481,0,0,1,.271-.2l25.836-7.608a.482.482,0,0,1,.616.511l-3.8,37.832a.484.484,0,0,1-.3.4L284.3,203.076a.472.472,0,0,1-.176.034m33.171-51.931-31.971,50.457,53.244-20.985,3.7-36.826Z" transform="translate(-24.337 -12.242)" fill="#f18382"/>
        <path id="Path_938" data-name="Path 938" d="M278,176.138a.484.484,0,0,1-.325-.126c-11.593-10.569-19.979-22.749-24.924-36.2a.483.483,0,0,1,.371-.642c9.868-1.694,16.174-4.444,23.392-7.861a.482.482,0,0,1,.62.186c3.106,5.151,6.655,9.995,10.089,14.678,2.5,3.409,4.858,6.63,7.018,9.908a.483.483,0,0,1-.082.626,66.48,66.48,0,0,0-13.473,15.784c-.768,1.189-1.492,2.313-2.291,3.444a.482.482,0,0,1-.342.2l-.052,0M253.857,140.02c4.856,12.934,12.948,24.673,24.061,34.908.667-.965,1.3-1.938,1.955-2.96A67.1,67.1,0,0,1,293.2,156.262c-2.085-3.139-4.359-6.241-6.761-9.52-3.362-4.588-6.837-9.328-9.91-14.378-6.984,3.3-13.192,5.964-22.675,7.655" transform="translate(-21.684 -11.262)" fill="#f18382"/>
        <path id="Path_939" data-name="Path 939" d="M304.1,153.956a.471.471,0,0,1-.2-.042,2.958,2.958,0,0,0-1.223-.314,3.286,3.286,0,0,1-1.631-.5,60.235,60.235,0,0,1-14.4-10.91,56.767,56.767,0,0,1-10.858-15.784,61.76,61.76,0,0,1-4.851-15.746.486.486,0,0,1,.068-.337c9.915-15.741,75.426-70.333,97.418-86.021C390.6,8.486,416.7,2.907,434.7,1.013A168.827,168.827,0,0,1,468.787.687a.484.484,0,0,1,.414.58,168.727,168.727,0,0,1-11.4,32.127c-7.647,16.4-21.417,39.269-43.587,55.086-19.632,14.006-91.875,60.79-109.987,65.461a.489.489,0,0,1-.121.016M276.669,126a55.807,55.807,0,0,0,10.673,15.516,59.261,59.261,0,0,0,14.173,10.735,2.385,2.385,0,0,0,1.225.383,3.765,3.765,0,0,1,1.4.328c17.507-4.682,88.675-50.407,109.509-65.27C435.643,72,449.316,49.3,456.914,33.008A171.533,171.533,0,0,0,468.138,1.587a171.62,171.62,0,0,0-33.363.389C416.9,3.86,390.979,9.4,368.988,25.088c-21.876,15.606-86.87,69.737-97.063,85.6A60.742,60.742,0,0,0,276.669,126" transform="translate(-23.247 0)" fill="#f18382"/>
        <path id="Path_940" data-name="Path 940" d="M304.1,163.674a.485.485,0,0,1-.2-.041,2.942,2.942,0,0,0-1.223-.314,3.3,3.3,0,0,1-1.631-.5,60.251,60.251,0,0,1-14.4-10.909,56.771,56.771,0,0,1-10.858-15.785,61.714,61.714,0,0,1-4.852-15.746.484.484,0,0,1,.068-.336,53.08,53.08,0,0,1,5.247-6.6.483.483,0,0,1,.83.219q.134.62.28,1.233a59.623,59.623,0,0,0,2.146,6.985,69.868,69.868,0,0,0,6.188,12.679,66.04,66.04,0,0,0,16.974,18.815,42.977,42.977,0,0,0,10.787,5.729.483.483,0,0,1,.044.891,57.867,57.867,0,0,1-9.281,3.665.446.446,0,0,1-.121.016M271.925,120.4a60.791,60.791,0,0,0,4.744,15.318,55.8,55.8,0,0,0,10.674,15.516,59.237,59.237,0,0,0,14.172,10.735,2.4,2.4,0,0,0,1.225.383,3.743,3.743,0,0,1,1.4.328,53.736,53.736,0,0,0,7.907-3.076,44.252,44.252,0,0,1-9.94-5.452,67,67,0,0,1-17.227-19.086,70.874,70.874,0,0,1-6.274-12.855,60.625,60.625,0,0,1-2.179-7.1c-.027-.11-.052-.22-.078-.331a49.709,49.709,0,0,0-4.426,5.617" transform="translate(-23.247 -9.72)" fill="#f18382"/>
        <path id="Path_941" data-name="Path 941" d="M444.561,70.965a.48.48,0,0,1-.291-.1c-1.851-1.4-3.612-2.839-5.231-4.267A108.473,108.473,0,0,1,427.23,54.308a147.41,147.41,0,0,1-10.118-13.924c-2.9-4.478-5.762-9.343-8.766-14.873h0c-2.066-3.8-4.249-8.025-6.675-12.9a.483.483,0,0,1,.245-.659C421.618,3.618,441.8,1,455.253.271A157.8,157.8,0,0,1,480,.688a.481.481,0,0,1,.413.58,157.494,157.494,0,0,1-7.545,23.254c-4.991,12.354-13.891,30.411-27.946,46.28a.48.48,0,0,1-.362.163M409.193,25.05c2.992,5.509,5.848,10.353,8.729,14.81a146.225,146.225,0,0,0,10.052,13.834,107.637,107.637,0,0,0,11.7,12.183c1.5,1.321,3.117,2.648,4.82,3.95,13.787-15.679,22.541-33.455,27.469-45.645a161.947,161.947,0,0,0,7.386-22.594,162.531,162.531,0,0,0-24.069-.352c-13.267.721-33.1,3.288-52.519,11.4,2.328,4.672,4.435,8.737,6.43,12.411" transform="translate(-34.46 0)" fill="#f18382"/>
        <path id="Path_942" data-name="Path 942" d="M444.561,71.679a.481.481,0,0,1-.291-.1c-1.854-1.4-3.614-2.84-5.231-4.267A108.47,108.47,0,0,1,427.23,55.022,147.1,147.1,0,0,1,417.112,41.1c-2.9-4.478-5.763-9.343-8.767-14.873-2.066-3.8-4.249-8.024-6.675-12.9a.479.479,0,0,1-.02-.382.486.486,0,0,1,.264-.277c3.744-1.582,7.692-3.036,11.735-4.32a.483.483,0,0,1,.6.282c1.64,4.129,3.479,8.231,5.463,12.2,2.113,4.22,4.542,8.508,7.219,12.744,2.561,4.051,5.415,8.117,8.485,12.087,2.99,3.866,6.19,7.628,9.512,11.18,2.2,2.352,4.247,4.427,6.26,6.346a.483.483,0,0,1,.05.642c-2.064,2.712-4.189,5.3-6.312,7.7a.485.485,0,0,1-.362.163m-41.8-58.327c2.357,4.731,4.405,8.686,6.43,12.411,2.992,5.509,5.847,10.353,8.729,14.81a146.349,146.349,0,0,0,10.052,13.834,107.56,107.56,0,0,0,11.7,12.183c1.5,1.319,3.116,2.647,4.82,3.95,1.919-2.183,3.837-4.523,5.708-6.965-1.925-1.848-3.888-3.842-5.986-6.087-3.342-3.574-6.563-7.358-9.571-11.248-3.088-3.993-5.961-8.085-8.537-12.162-2.7-4.263-5.14-8.579-7.267-12.827-1.93-3.854-3.722-7.84-5.331-11.853-3.7,1.187-7.308,2.515-10.75,3.954" transform="translate(-34.46 -0.714)" fill="#f18382"/>
        <path id="Path_943" data-name="Path 943" d="M380.729,95.882a19.842,19.842,0,0,1-3.282-.274,19.549,19.549,0,1,1,3.282.274M369.841,61.033a18.676,18.676,0,1,0,26.05,4.357,18.7,18.7,0,0,0-26.05-4.357" transform="translate(-30.979 -4.856)" fill="#f18382"/>
        <path id="Path_944" data-name="Path 944" d="M381.229,90.947a14.374,14.374,0,0,1-2.372-.2,14.14,14.14,0,1,1,2.372.2m-7.714-24.969h0a13.23,13.23,0,1,0,18.454,3.086,13.144,13.144,0,0,0-18.454-3.086" transform="translate(-31.489 -5.368)" fill="#f18382"/>
        <path id="Path_945" data-name="Path 945" d="M321.12,133.128a16.855,16.855,0,0,1-2.789-.233,16.613,16.613,0,1,1,2.789.233m-.056-32.416a15.72,15.72,0,1,0,12.823,6.588,15.644,15.644,0,0,0-12.823-6.588" transform="translate(-26.117 -8.559)" fill="#f18382"/>
        <path id="Path_946" data-name="Path 946" d="M321.543,128.953a12.172,12.172,0,0,1-2.019-.169,12.021,12.021,0,1,1,2.019.169m-6.483-21.139h0a11.119,11.119,0,1,0,15.509,2.594,11.046,11.046,0,0,0-15.509-2.594" transform="translate(-26.55 -8.991)" fill="#f18382"/>
        <path id="Path_947" data-name="Path 947" d="M367.642,126.416a.5.5,0,0,1-.123-.016,34.067,34.067,0,0,1-9.134-4.429l-5.752-3.542a.485.485,0,0,1-.188-.606c1.212-2.75,2.491-5.1,3.728-7.382.428-.786.849-1.564,1.263-2.347a.479.479,0,0,1,.584-.23,4.591,4.591,0,0,1,2.828,3.049,16.658,16.658,0,0,1,.442,1.7,13.344,13.344,0,0,0,.471,1.766,14,14,0,0,0,2.912,4.219c.3.339.6.677.889,1.019,1.972,2.331,2.809,4.417,2.557,6.378a.481.481,0,0,1-.477.421M353.5,117.829l5.391,3.32a35.438,35.438,0,0,0,8.306,4.16c0-1.526-.783-3.191-2.372-5.069-.284-.336-.58-.669-.875-1a14.7,14.7,0,0,1-3.1-4.527,14.506,14.506,0,0,1-.508-1.89,15.645,15.645,0,0,0-.412-1.6,3.726,3.726,0,0,0-1.851-2.288c-.349.655-.7,1.308-1.06,1.967-1.17,2.153-2.378,4.376-3.522,6.928" transform="translate(-30.237 -9.253)" fill="#f18382"/>
        <g id="Group_734" data-name="Group 734" transform="translate(336.49 22.148)" opacity="0.129">
          <g id="Group_733" data-name="Group 733">
            <g id="Group_732" data-name="Group 732" clip-path="url(#clip-path-12)">
              <path id="Path_948" data-name="Path 948" d="M376.919,24.227a3.394,3.394,0,0,0-1.451.677c-.729.486-1.465.964-2.186,1.464A45.866,45.866,0,0,0,368.4,30.2a1.1,1.1,0,0,0,1.552,1.552,47.794,47.794,0,0,1,4.758-3.715c.683-.426,1.352-.871,2.039-1.292.337-.253.8-.363,1.052-.714a1.123,1.123,0,0,0-.881-1.8" transform="translate(-368.071 -24.227)" fill="#f18382"/>
            </g>
          </g>
        </g>
        <path id="Path_949" data-name="Path 949" d="M318.756,123.657h-.014a.16.16,0,0,1-.146-.174l1.148-13.121a.165.165,0,0,1,.175-.146.161.161,0,0,1,.146.174l-1.149,13.121a.161.161,0,0,1-.16.147" transform="translate(-27.336 -9.457)" fill="#f18382"/>
        <path id="Path_950" data-name="Path 950" d="M324.451,125.335h-.006a.161.161,0,0,1-.155-.166l.548-16.373a.167.167,0,0,1,.166-.155.161.161,0,0,1,.155.166l-.548,16.373a.161.161,0,0,1-.161.155" transform="translate(-27.825 -9.322)" fill="#f18382"/>
        <path id="Path_951" data-name="Path 951" d="M379.048,81.277h-.007a.161.161,0,0,1-.154-.167l.3-7.213a.168.168,0,0,1,.167-.154.16.16,0,0,1,.154.167l-.3,7.213a.161.161,0,0,1-.161.154" transform="translate(-32.509 -6.327)" fill="#f18382"/>
        <path id="Path_952" data-name="Path 952" d="M384.12,86.595h0a.161.161,0,0,1-.16-.162c.034-6.515.225-13.117.57-19.621a.161.161,0,1,1,.321.017c-.345,6.5-.537,13.095-.57,19.606a.161.161,0,0,1-.161.16" transform="translate(-32.945 -5.72)" fill="#f18382"/>
        <path id="Path_953" data-name="Path 953" d="M355.661,117.843a.152.152,0,0,1-.045-.006.161.161,0,0,1-.11-.2,19.628,19.628,0,0,1,1.7-4.066.161.161,0,0,1,.281.157,19.267,19.267,0,0,0-1.674,4,.162.162,0,0,1-.155.116" transform="translate(-30.503 -9.738)" fill="#f18382"/>
        <path id="Path_954" data-name="Path 954" d="M357,119.381a.134.134,0,0,1-.033,0,.161.161,0,0,1-.125-.189,13.9,13.9,0,0,1,1.141-3.325.161.161,0,0,1,.289.143,13.563,13.563,0,0,0-1.114,3.247.16.16,0,0,1-.157.128" transform="translate(-30.618 -9.934)" fill="#f18382"/>
        <path id="Path_955" data-name="Path 955" d="M358.617,120.631h0a.162.162,0,0,1-.158-.164,8.623,8.623,0,0,1,.826-3.53.161.161,0,1,1,.291.138,8.287,8.287,0,0,0-.8,3.4.161.161,0,0,1-.161.158" transform="translate(-30.756 -10.026)" fill="#f18382"/>
        <path id="Path_956" data-name="Path 956" d="M360.4,121.628h0a.161.161,0,0,1-.158-.164,12.907,12.907,0,0,1,.474-3.24.161.161,0,0,1,.31.087,12.6,12.6,0,0,0-.462,3.159.161.161,0,0,1-.161.158" transform="translate(-30.91 -10.134)" fill="#f18382"/>
        <path id="Path_957" data-name="Path 957" d="M362.363,122.926a.161.161,0,0,1-.161-.16,23.922,23.922,0,0,1,.224-3.4.161.161,0,0,1,.318.044,23.678,23.678,0,0,0-.22,3.357.162.162,0,0,1-.16.162Z" transform="translate(-31.078 -10.23)" fill="#f18382"/>
        <path id="Path_958" data-name="Path 958" d="M364.236,123.812a.162.162,0,0,1-.162-.154,19.082,19.082,0,0,1,.071-2.781.161.161,0,0,1,.32.031,18.977,18.977,0,0,0-.069,2.735.16.16,0,0,1-.153.168h-.007" transform="translate(-31.237 -10.359)" fill="#f18382"/>
        <path id="Path_959" data-name="Path 959" d="M366.056,125.274a.16.16,0,0,1-.159-.139,9.871,9.871,0,0,1-.038-2.311.163.163,0,0,1,.176-.144.16.16,0,0,1,.144.176,9.523,9.523,0,0,0,.037,2.235.161.161,0,0,1-.138.18.089.089,0,0,1-.022,0" transform="translate(-31.387 -10.526)" fill="#f18382"/>
        <path id="Path_960" data-name="Path 960" d="M299.848,6.986a.161.161,0,0,1-.124-.059A25.991,25.991,0,0,1,298,4.578a.161.161,0,0,1,.271-.175,25.589,25.589,0,0,0,1.7,2.319.161.161,0,0,1-.023.227.158.158,0,0,1-.1.037" transform="translate(-25.567 -0.371)" fill="#f18382"/>
        <path id="Path_961" data-name="Path 961" d="M406.213,17.154a.147.147,0,0,1-.034,0,.16.16,0,0,1-.123-.19l.768-3.625a.161.161,0,1,1,.314.066l-.768,3.626a.162.162,0,0,1-.157.127" transform="translate(-34.84 -1.133)" fill="#f18382"/>
        <path id="Path_962" data-name="Path 962" d="M408.434,21.548h-.02a.161.161,0,0,1-.14-.18,85.693,85.693,0,0,1,1.667-9.16.161.161,0,0,1,.314.075,85.282,85.282,0,0,0-1.661,9.126.161.161,0,0,1-.159.141" transform="translate(-35.031 -1.037)" fill="#f18382"/>
        <path id="Path_963" data-name="Path 963" d="M410.709,25.4h-.018a.161.161,0,0,1-.142-.178c.535-4.7,1.2-9.439,1.97-14.1a.16.16,0,0,1,.185-.133.161.161,0,0,1,.133.186c-.771,4.652-1.433,9.391-1.967,14.081a.162.162,0,0,1-.16.143" transform="translate(-35.226 -0.943)" fill="#f18382"/>
        <path id="Path_964" data-name="Path 964" d="M413.183,29.822h-.014a.16.16,0,0,1-.146-.174c.483-5.643,1.074-11.359,1.756-16.988a.161.161,0,1,1,.319.038c-.681,5.625-1.272,11.337-1.755,16.977a.161.161,0,0,1-.16.147" transform="translate(-35.438 -1.074)" fill="#f18382"/>
        <path id="Path_965" data-name="Path 965" d="M415.582,33.346h-.016a.16.16,0,0,1-.144-.176l1.422-14.517a.161.161,0,0,1,.32.031L415.742,33.2a.161.161,0,0,1-.16.145" transform="translate(-35.644 -1.588)" fill="#f18382"/>
        <path id="Path_966" data-name="Path 966" d="M417.773,37.965h-.017a.161.161,0,0,1-.143-.177l1.594-14.45a.163.163,0,0,1,.178-.142.16.16,0,0,1,.142.177l-1.594,14.449a.161.161,0,0,1-.16.144" transform="translate(-35.832 -1.99)" fill="#f18382"/>
        <path id="Path_967" data-name="Path 967" d="M420.319,41.98h-.02a.161.161,0,0,1-.14-.179c.58-4.679,1.051-9.434,1.4-14.133a.161.161,0,0,1,.321.024c-.352,4.705-.825,9.466-1.405,14.149a.16.16,0,0,1-.159.141" transform="translate(-36.051 -2.361)" fill="#f18382"/>
        <path id="Path_968" data-name="Path 968" d="M423.076,46.084h-.012a.161.161,0,0,1-.15-.172l1.012-13.683a.158.158,0,0,1,.171-.149.16.16,0,0,1,.149.172l-1.01,13.684a.162.162,0,0,1-.16.149" transform="translate(-36.287 -2.752)" fill="#f18382"/>
        <path id="Path_969" data-name="Path 969" d="M425.894,49.982h0a.161.161,0,0,1-.157-.165c.1-4.52.314-9.1.645-13.613a.165.165,0,0,1,.172-.148.161.161,0,0,1,.149.172c-.331,4.508-.548,9.083-.644,13.6a.16.16,0,0,1-.161.157" transform="translate(-36.529 -3.094)" fill="#f18382"/>
        <path id="Path_970" data-name="Path 970" d="M428.495,53.469h-.008a.161.161,0,0,1-.153-.169l.688-13a.162.162,0,0,1,.169-.153.161.161,0,0,1,.152.169l-.687,13a.161.161,0,0,1-.161.153" transform="translate(-36.752 -3.445)" fill="#f18382"/>
        <path id="Path_971" data-name="Path 971" d="M430.722,56.2h-.013a.16.16,0,0,1-.148-.173l.967-12.114a.161.161,0,1,1,.32.026l-.966,12.114a.16.16,0,0,1-.16.148" transform="translate(-36.943 -3.755)" fill="#f18382"/>
        <path id="Path_972" data-name="Path 972" d="M433.355,59.478h-.013a.161.161,0,0,1-.148-.173c.3-3.968.517-8,.641-11.971a.168.168,0,0,1,.166-.155.161.161,0,0,1,.155.166c-.125,3.979-.341,8.012-.642,11.984a.161.161,0,0,1-.16.149" transform="translate(-37.169 -4.048)" fill="#f18382"/>
        <path id="Path_973" data-name="Path 973" d="M435.957,62.382h-.011a.162.162,0,0,1-.15-.172l.821-11.921a.163.163,0,0,1,.172-.149.16.16,0,0,1,.149.171l-.821,11.921a.161.161,0,0,1-.16.15" transform="translate(-37.392 -4.302)" fill="#f18382"/>
        <path id="Path_974" data-name="Path 974" d="M438.3,64.9l-.023,0a.162.162,0,0,1-.137-.182c.513-3.6.884-7.266,1.1-10.9a.158.158,0,0,1,.17-.15.16.16,0,0,1,.151.17c-.219,3.64-.591,7.316-1.1,10.925a.161.161,0,0,1-.159.138" transform="translate(-37.593 -4.605)" fill="#f18382"/>
        <path id="Path_975" data-name="Path 975" d="M441.494,68.631h-.008a.163.163,0,0,1-.153-.169l.562-11.473a.155.155,0,0,1,.168-.153.161.161,0,0,1,.153.168l-.561,11.474a.161.161,0,0,1-.161.153" transform="translate(-37.867 -4.877)" fill="#f18382"/>
        <path id="Path_976" data-name="Path 976" d="M444.783,71.307a.16.16,0,0,1-.161-.16l-.036-11.287a.162.162,0,0,1,.16-.162.15.15,0,0,1,.162.161l.036,11.286a.161.161,0,0,1-.16.162Z" transform="translate(-38.147 -5.122)" fill="#f18382"/>
        <path id="Path_977" data-name="Path 977" d="M447.7,73.265a.16.16,0,0,1-.161-.157l-.232-10.27a.161.161,0,1,1,.322-.007l.232,10.27a.161.161,0,0,1-.157.165Z" transform="translate(-38.38 -5.377)" fill="#f18382"/>
        <path id="Path_978" data-name="Path 978" d="M450.438,71.4a.161.161,0,0,1-.16-.144,31.805,31.805,0,0,1-.1-5.558.158.158,0,0,1,.172-.149.16.16,0,0,1,.149.171,31.343,31.343,0,0,0,.1,5.5.161.161,0,0,1-.143.176h-.017" transform="translate(-38.62 -5.625)" fill="#f18382"/>
        <path id="Path_979" data-name="Path 979" d="M272.807,123.031a.152.152,0,0,1-.045-.006.16.16,0,0,1-.11-.2l.938-3.2a.161.161,0,0,1,.309.091l-.938,3.2a.162.162,0,0,1-.154.115" transform="translate(-23.394 -10.254)" fill="#f18382"/>
        <path id="Path_980" data-name="Path 980" d="M274.31,126.73l-.03,0a.161.161,0,0,1-.128-.188c.54-2.832,1.21-5.677,1.988-8.455a.161.161,0,1,1,.31.087c-.776,2.769-1.443,5.6-1.982,8.429a.162.162,0,0,1-.158.131" transform="translate(-23.523 -10.122)" fill="#f18382"/>
        <path id="Path_981" data-name="Path 981" d="M276.155,131.8h-.021a.162.162,0,0,1-.139-.181c.412-3.138.964-6.294,1.639-9.382a.161.161,0,1,1,.314.069c-.673,3.08-1.222,6.228-1.634,9.356a.161.161,0,0,1-.159.14" transform="translate(-23.681 -10.477)" fill="#f18382"/>
        <path id="Path_982" data-name="Path 982" d="M279.318,126.752a.161.161,0,1,1,.318.049c-.473,3.059-.879,6.173-1.208,9.254a.161.161,0,0,1-.16.144h-.017a.16.16,0,0,1-.143-.176" transform="translate(-23.862 -10.864)" fill="#f18382"/>
        <path id="Path_983" data-name="Path 983" d="M281.105,130.609a.161.161,0,1,1,.32.031l-.964,9.844a.16.16,0,0,1-.16.144h-.016a.161.161,0,0,1-.144-.176" transform="translate(-24.037 -11.194)" fill="#f18382"/>
        <path id="Path_984" data-name="Path 984" d="M283.467,135.1a.161.161,0,0,1,.32.034l-.988,9.372a.161.161,0,0,1-.16.144h-.017a.161.161,0,0,1-.143-.176" transform="translate(-24.237 -11.58)" fill="#f18382"/>
        <path id="Path_985" data-name="Path 985" d="M285.636,148.366a.161.161,0,0,1-.16.149h-.013a.161.161,0,0,1-.148-.173l.677-8.9a.159.159,0,0,1,.173-.148.161.161,0,0,1,.148.173" transform="translate(-24.481 -11.952)" fill="#f18382"/>
        <path id="Path_986" data-name="Path 986" d="M288.59,143.285a.162.162,0,0,1,.17-.151.161.161,0,0,1,.151.17c-.176,2.908-.28,5.86-.308,8.774a.161.161,0,0,1-.161.16h0a.161.161,0,0,1-.159-.163" transform="translate(-24.735 -12.281)" fill="#f18382"/>
        <path id="Path_987" data-name="Path 987" d="M291.378,146.7a.161.161,0,0,1,.161-.16h0a.162.162,0,0,1,.16.162c-.018,2.794.037,5.629.165,8.424a.161.161,0,0,1-.154.168H291.7a.161.161,0,0,1-.16-.154" transform="translate(-25.001 -12.573)" fill="#f18382"/>
        <path id="Path_988" data-name="Path 988" d="M294.3,150.3a.16.16,0,0,1,.161-.16h0a.16.16,0,0,1,.16.161,72.98,72.98,0,0,0,.414,8.046.161.161,0,0,1-.143.176h-.017a.161.161,0,0,1-.16-.144" transform="translate(-25.252 -12.882)" fill="#f18382"/>
        <path id="Path_989" data-name="Path 989" d="M298.157,161.025a.161.161,0,0,1-.159-.138c-.347-2.392-.614-4.83-.794-7.242a.16.16,0,0,1,.148-.172.158.158,0,0,1,.173.148c.178,2.405.445,4.835.791,7.22a.16.16,0,0,1-.136.182l-.023,0" transform="translate(-25.501 -13.168)" fill="#f18382"/>
        <path id="Path_990" data-name="Path 990" d="M301.634,163.525a.162.162,0,0,1-.157-.126c-.547-2.477-.986-5.011-1.307-7.529a.161.161,0,0,1,.319-.04c.32,2.509.758,5.032,1.3,7.5a.161.161,0,0,1-.122.192.149.149,0,0,1-.035,0" transform="translate(-25.755 -13.358)" fill="#f18382"/>
        <path id="Path_991" data-name="Path 991" d="M304.884,165.337a.16.16,0,0,1-.156-.123c-.539-2.267-1.024-4.579-1.44-6.872a.161.161,0,0,1,.129-.187.163.163,0,0,1,.187.13c.415,2.287.9,4.594,1.436,6.855a.16.16,0,0,1-.119.194.132.132,0,0,1-.038,0" transform="translate(-26.023 -13.57)" fill="#f18382"/>
        <path id="Path_992" data-name="Path 992" d="M307.761,165.583a.16.16,0,0,1-.156-.124L306.44,160.4a.161.161,0,1,1,.314-.072l1.165,5.062a.161.161,0,0,1-.121.192.129.129,0,0,1-.037,0" transform="translate(-26.293 -13.746)" fill="#f18382"/>
        <path id="Path_993" data-name="Path 993" d="M310.607,164.951H310.6a.226.226,0,0,1-.2-.179l-.746-2.406a.161.161,0,1,1,.307-.1l.72,2.321a.183.183,0,0,1,.061.038.19.19,0,0,1,.033.212.206.206,0,0,1-.169.109" transform="translate(-26.568 -13.913)" fill="#f18382"/>
        <g id="Group_737" data-name="Group 737" transform="translate(281.693 53.183)" opacity="0.129">
          <g id="Group_736" data-name="Group 736">
            <g id="Group_735" data-name="Group 735" clip-path="url(#clip-path-13)">
              <path id="Path_994" data-name="Path 994" d="M449.675,58.435a.808.808,0,0,0-.908-.192.826.826,0,0,0-.787.243c-1.321,1.4-2.584,2.842-3.809,4.3-.748-.163-1.167.506-1.58,1.135-.453.655-.908,1.31-1.4,1.936-.216.281-.437.557-.66.831-3.53,3.147-7.278,6.053-10.861,9.137-6.553,5.311-13.131,10.626-19.5,15.571-.259.178-.517.356-.774.535-4.294,2.914-8.684,5.683-12.964,8.618-8.872,6.131-17.593,12.482-26.7,18.262-4.075,2.63-8.212,5.16-12.309,7.756-2.712,1.689-5.53,3.2-8.284,4.816-4.162,2.528-8.253,5.173-12.474,7.6-3.7,2.326-7.529,4.417-11.386,6.459q-5.164,2.959-10.2,6.13c-.993.608-1.98,1.225-2.981,1.819-.417.263-.941.448-1.152.905-.7.33-1.369.623-1.99.86a1.111,1.111,0,1,0,.591,2.141q.435-.165.865-.34a1.143,1.143,0,0,0,.874,2.088c8.259-1.893,16.473-4.018,24.813-5.545,2.158-.364,3.031-.476,4.754-.664,1.259-.064,2.061-.153,2.6-1.065.109-1.428.255-2.852.421-4.266q.421-3.583,1.028-7.143c.02-.17.041-.34.062-.51a1.149,1.149,0,0,0-.631-.342c.942-.6,1.875-1.209,2.794-1.845.642-.517,1.479-.855,1.775-1.4q2.477-1.273,4.967-2.517c2.4-1.178,4.639-2.642,6.924-4.022,4.364-2.543,8.493-5.447,12.648-8.312,3.586-2.474,7.251-4.826,10.9-7.208,3.351-2.241,6.964-4.052,10.321-6.281,3.276-2.2,6.508-4.472,9.8-6.65,2.752-1.877,5.594-3.622,8.3-5.559.932-.666,1.822-1.385,2.7-2.125,1.432-.973,2.829-2,4.228-3.014,1.886-1.374,3.777-2.744,5.544-4.273a124.1,124.1,0,0,0,12.488-11.962,7.787,7.787,0,0,0,.939-1.153.844.844,0,0,0,.016-.691c.914-1.162,1.811-2.31,2.731-3.479q.529-.618,1.039-1.254c1.279-1.2,2.518-2.435,3.687-3.745,1.167-1.28,2.258-2.626,3.3-4.014.072-.1.25-.336.293-.394a.865.865,0,0,0-.041-1.183M313.812,156.121q-1.565.374-3.136.724c1.013-.424,2.007-.893,2.991-1.381a.361.361,0,0,1,.144.657m27.368-14.579c-.645.442-3.881,2.731-5.485,3.652-2.211,1.23-4.444,2.34-6.7,3.419,1.785-1,3.551-2.029,5.286-3.114,2.472-1.472,4.975-2.893,7.441-4.376-.173.139-.35.28-.541.419" transform="translate(-308.132 -58.175)" fill="#f18382"/>
            </g>
          </g>
        </g>
        <g id="Group_740" data-name="Group 740" transform="translate(299.047 118.395)" opacity="0.129">
          <g id="Group_739" data-name="Group 739">
            <g id="Group_738" data-name="Group 738" clip-path="url(#clip-path-14)">
              <path id="Path_995" data-name="Path 995" d="M327.181,129.571c-.023.01-.044.021-.067.03.33-.135.242-.1.067-.03" transform="translate(-327.114 -129.507)" fill="#f18382"/>
            </g>
          </g>
        </g>
        <g id="Group_743" data-name="Group 743" transform="translate(288.011 105.061)" opacity="0.129">
          <g id="Group_742" data-name="Group 742">
            <g id="Group_741" data-name="Group 741" clip-path="url(#clip-path-15)">
              <path id="Path_996" data-name="Path 996" d="M332.608,114.939a.916.916,0,0,0-.665.872,5.307,5.307,0,0,1,.009.772c0,.057-.011.113-.017.17a18.311,18.311,0,0,1-1.064,3.9c-2.829,5.768-7.871,7.108-13.671,5.561-.532-.146-1.094-.507-1.625-.16a1.107,1.107,0,0,0,0,1.9,17.537,17.537,0,0,0,6.5,1.189,11.16,11.16,0,0,0,3.883-.741c.063-.028.128-.056.184-.08a13.44,13.44,0,0,0,5.972-5.545,12.349,12.349,0,0,0,1.51-4.715c.109-1.012.678-3.362-1.018-3.121" transform="translate(-315.042 -114.922)" fill="#f18382"/>
            </g>
          </g>
        </g>
        <g id="Group_746" data-name="Group 746" transform="translate(344.013 68.4)" opacity="0.129">
          <g id="Group_745" data-name="Group 745">
            <g id="Group_744" data-name="Group 744" clip-path="url(#clip-path-16)">
              <path id="Path_997" data-name="Path 997" d="M396.181,75.84a1.037,1.037,0,1,0-2.07.109,13.383,13.383,0,0,1-.645,3.143c-.01.029-.022.058-.033.087-.289.64-.613,1.263-.934,1.888a12.145,12.145,0,0,1-3.948,4.661,10.9,10.9,0,0,1-1.328.913,27.616,27.616,0,0,1-2.754,1.416c.745-.293-.868.317-1.2.375a15.506,15.506,0,0,1-2.506.525,13.218,13.218,0,0,1-2.62-.1c-.444-.059-.914-.228-1.323.032a1.079,1.079,0,0,0,.256,1.955,20.186,20.186,0,0,0,4.532.388l.1-.012a.878.878,0,0,0,.82.5,12.652,12.652,0,0,0,4.9-.768,17.666,17.666,0,0,0,2.833-1.672,9.926,9.926,0,0,0,3.148-3.04c.276-.485.856-.942.7-1.551a.766.766,0,0,0-.382-.494,16.448,16.448,0,0,0,1.947-4.178,9.69,9.69,0,0,0,.3-1.616c-.048.367-.035.266.008-.034a13.336,13.336,0,0,0,.195-2.521" transform="translate(-376.301 -74.82)" fill="#f18382"/>
            </g>
          </g>
        </g>
        <g id="Group_749" data-name="Group 749" transform="translate(252.874 146.214)" opacity="0.129">
          <g id="Group_748" data-name="Group 748">
            <g id="Group_747" data-name="Group 747" clip-path="url(#clip-path-17)">
              <path id="Path_998" data-name="Path 998" d="M292.438,159.977a1.057,1.057,0,0,0-.734.066,3.122,3.122,0,0,0-1.1.451c-.757.406-1.511.822-2.232,1.291a48.936,48.936,0,0,0-7.471,6.273,28.659,28.659,0,0,0-4.073,4.619,1.465,1.465,0,0,0,.016,1.567,1.272,1.272,0,0,0,.407.51c.115.081.362.255.455.316l.015.012a3.431,3.431,0,0,1,.329.338c.464.634.577,1.523,1.276,1.962a1.534,1.534,0,0,0,1.932-.53,2.209,2.209,0,0,0,.182-.405c.034-.075.092-.2.144-.306a36.153,36.153,0,0,1,1.739-3.287,33.648,33.648,0,0,1,7.429-9.253c.861-.789,2-1.614,2.253-1.916a1.088,1.088,0,0,0-.565-1.708" transform="translate(-276.608 -159.937)" fill="#f18382"/>
            </g>
          </g>
        </g>
        <path id="Path_999" data-name="Path 999" d="M37.259,257.087a.44.44,0,0,1-.109-.013c-6.494-1.5-11.918-7.291-13.5-14.4-1.4-6.3.083-13.488,4.063-19.713,7.885-12.333,24.655-18.219,38.542-13.665-3.45-13.147-1.314-26.661,5.777-36.311A33.083,33.083,0,0,1,87.6,161.54a28.214,28.214,0,0,1,19-.206.482.482,0,1,1-.332.906c-11.291-4.133-25.67.73-33.446,11.312-7.077,9.63-9.09,23.223-5.386,36.362a.482.482,0,0,1-.629.585c-13.642-4.95-30.452.75-38.268,12.977-3.842,6.011-5.277,12.93-3.934,18.984,1.5,6.759,6.631,12.254,12.77,13.674a.482.482,0,0,1-.108.953" transform="translate(-1.985 -13.71)" fill="#f18382"/>
        <path id="Path_1000" data-name="Path 1000" d="M89.8,287.46q-1.038,0-2.161-.042c-6.808-.255-15.764-2.018-19.777-8.969-2.878-4.985-2.276-11.043-1.341-17.33a.482.482,0,1,1,.954.142c-.91,6.112-1.5,11.989,1.222,16.706,3.792,6.569,12.413,8.241,18.977,8.487a30.893,30.893,0,0,0,11.12-1.2,14.622,14.622,0,0,0,8.5-6.65.483.483,0,0,1,.85.457,15.582,15.582,0,0,1-9.043,7.109,28.884,28.884,0,0,1-9.3,1.291" transform="translate(-5.641 -22.369)" fill="#f18382"/>
        <path id="Path_1001" data-name="Path 1001" d="M135.33,282.611a.479.479,0,0,1-.155-.026,16.226,16.226,0,0,1-10.7-16,.483.483,0,0,1,.964.063,15.234,15.234,0,0,0,10.046,15.02.483.483,0,0,1-.154.94" transform="translate(-10.678 -22.835)" fill="#f18382"/>
        <path id="Path_1002" data-name="Path 1002" d="M191.039,298.411a43.208,43.208,0,0,1-13.328-2.26c-10.634-3.5-17.785-10.392-19.13-18.445a.482.482,0,0,1,.952-.159c1.284,7.693,8.193,14.305,18.48,17.688,5.757,1.893,14.4,3.539,22.9.631,7.753-2.654,13.692-8.976,15.127-16.1a.483.483,0,0,1,.868-.183,15.84,15.84,0,0,0,28.46-5.812.482.482,0,0,1,.943.2,16.8,16.8,0,0,1-29.561,7c-1.838,7.036-7.823,13.17-15.525,15.806a31.37,31.37,0,0,1-10.19,1.632" transform="translate(-13.606 -23.457)" fill="#f18382"/>
        <path id="Path_1003" data-name="Path 1003" d="M259.117,257.866a.482.482,0,0,1-.189-.926,15.55,15.55,0,0,0-1.348-29.1.482.482,0,0,1,.3-.918,16.514,16.514,0,0,1,1.43,30.91.475.475,0,0,1-.188.038" transform="translate(-22.072 -19.468)" fill="#f18382"/>
        <path id="Path_1004" data-name="Path 1004" d="M41.381,251.169a.481.481,0,0,1-.376-.179,14.517,14.517,0,0,1,2.932-20.251.482.482,0,1,1,.549.794,13.556,13.556,0,0,0-2.73,18.852.482.482,0,0,1-.375.785" transform="translate(-3.272 -19.791)" fill="#f18382"/>
        <path id="Path_1005" data-name="Path 1005" d="M80.665,207.2a.484.484,0,0,1-.4-.209,11.4,11.4,0,0,1,1.523-14.261.482.482,0,0,1,.663.7,10.4,10.4,0,0,0-1.39,13.014.483.483,0,0,1-.4.755" transform="translate(-6.73 -16.526)" fill="#f18382"/>
        <path id="Path_1006" data-name="Path 1006" d="M90.7,278.24a12.249,12.249,0,0,1-11.755-9.906.483.483,0,0,1,.953-.156,11.212,11.212,0,0,0,11.485,9.073.482.482,0,1,1,.069.962q-.377.027-.752.027" transform="translate(-6.773 -22.976)" fill="#f18382"/>
        <path id="Path_1007" data-name="Path 1007" d="M193.8,289.382a.482.482,0,0,1-.067-.96,22.853,22.853,0,0,0,17-12.205.482.482,0,1,1,.862.433,23.831,23.831,0,0,1-17.724,12.727.56.56,0,0,1-.068,0" transform="translate(-16.587 -23.677)" fill="#f18382"/>
        <path id="Path_1008" data-name="Path 1008" d="M252.264,252.824a.483.483,0,0,1-.273-.88,9.27,9.27,0,0,0,2.488-12.187.483.483,0,1,1,.815-.517,10.269,10.269,0,0,1-2.756,13.5.477.477,0,0,1-.272.085" transform="translate(-21.603 -20.508)" fill="#f18382"/>
        <path id="Path_1009" data-name="Path 1009" d="M128.168,247.467a19.2,19.2,0,0,1-10.262-3.089,18.519,18.519,0,0,1,5.32-33.318.483.483,0,0,1,.235.936c-8.725,2.2-14.833,12.18-12.814,20.948,1.781,7.735,9.664,13.557,17.543,13.557a15.349,15.349,0,0,0,3.14-.32.482.482,0,1,1,.2.944,16.4,16.4,0,0,1-3.36.342" transform="translate(-9.378 -18.108)" fill="#f18382"/>
        <g id="Group_752" data-name="Group 752" transform="translate(235.219 218.748)" opacity="0.129">
          <g id="Group_751" data-name="Group 751">
            <g id="Group_750" data-name="Group 750" clip-path="url(#clip-path-18)">
              <path id="Path_1010" data-name="Path 1010" d="M268.99,240.205a1.534,1.534,0,0,0-2.94.591c-.037,2.65.044,3.161-.71,5.475a13.994,13.994,0,0,1-1.4,2.587c-.386.6-.772,1.2-1.2,1.773a26.568,26.568,0,0,1-3.088,3.362c-1.06.841-.333.216-1.87,1.4.1-.075.259-.2.328-.254a1.666,1.666,0,0,0,.838,3.094,4.323,4.323,0,0,0,1.694-.653l-.415.175a8.8,8.8,0,0,0,2.88-2.151,22.206,22.206,0,0,0,5.471-8.59,16.8,16.8,0,0,0,.555-4.335,9.363,9.363,0,0,0-.143-2.472" transform="translate(-257.296 -239.278)" fill="#f18382"/>
            </g>
          </g>
        </g>
        <g id="Group_755" data-name="Group 755" transform="translate(209.466 249.975)" opacity="0.129">
          <g id="Group_754" data-name="Group 754">
            <g id="Group_753" data-name="Group 753" clip-path="url(#clip-path-19)">
              <path id="Path_1011" data-name="Path 1011" d="M249.395,274.173c-2.935,4.479-4.693,6.828-7.7,8.309a20.685,20.685,0,0,1-5,1.157l.228-.03a23.22,23.22,0,0,1-5.155.2c-.19-.008-.676-.059-.91-.083a1.5,1.5,0,0,0-1.3,2.541,3.994,3.994,0,0,0,2.216.667,22.347,22.347,0,0,0,6.911-.275,13.973,13.973,0,0,0,6.622-2.57,18.464,18.464,0,0,0,4.624-5.257q.831-1.259,1.661-2.519c.223-.376.573-.72.586-1.178a1.5,1.5,0,0,0-2.783-.962" transform="translate(-229.126 -273.437)" fill="#f18382"/>
            </g>
          </g>
        </g>
        <g id="Group_758" data-name="Group 758" transform="translate(173.484 256.368)" opacity="0.129">
          <g id="Group_757" data-name="Group 757">
            <g id="Group_756" data-name="Group 756" clip-path="url(#clip-path-20)">
              <path id="Path_1012" data-name="Path 1012" d="M216.977,280.92c-3.275,3.351-6.292,6.985-9.92,9.97l-.016.014a30.473,30.473,0,0,1-3.375,2.221c-.635.354-1.278.7-1.942,1-2.588,1.027-5.414,1.238-8.119,1.828-.9.177-1.792.368-2.688.55a1.289,1.289,0,0,0-.7.271,1.145,1.145,0,0,0-.3,1.494,1.3,1.3,0,0,0,1.466.538c.838-.064,1.677-.124,2.515-.189,5.077-.527,8.71-.239,13.291-3.46,4.823-3.1,8.237-7.781,12.128-11.89a1.657,1.657,0,0,0-2.343-2.343" transform="translate(-189.766 -280.429)" fill="#f18382"/>
            </g>
          </g>
        </g>
        <g id="Group_761" data-name="Group 761" transform="translate(76.019 254.493)" opacity="0.129">
          <g id="Group_760" data-name="Group 760">
            <g id="Group_759" data-name="Group 759" clip-path="url(#clip-path-21)">
              <path id="Path_1013" data-name="Path 1013" d="M106.924,278.884c-4.081,3.94-7.182,5.433-11.46,6.034-3.062.356-6.153.36-9.229.48-.639.03-1.281.021-1.915.1.044-.005.075-.011.068-.015a1.239,1.239,0,0,0-.876,2.115,1.418,1.418,0,0,0,.571.319h0a1.028,1.028,0,0,0,.14.028c.077.012.154.018.232.024.312.037.7.093,1.741.184,3.931.334,7.956.653,11.855-.105a18.057,18.057,0,0,0,6.034-2.4,30.324,30.324,0,0,0,3.892-3.011c.557-.594,1.428-1.109,1.749-1.857a1.725,1.725,0,0,0-2.8-1.889" transform="translate(-83.154 -278.379)" fill="#f18382"/>
            </g>
          </g>
        </g>
        <g id="Group_764" data-name="Group 764" transform="translate(107.301 221.807)" opacity="0.129">
          <g id="Group_763" data-name="Group 763">
            <g id="Group_762" data-name="Group 762" clip-path="url(#clip-path-22)">
              <path id="Path_1014" data-name="Path 1014" d="M133.519,247.625a1.617,1.617,0,0,0-1.561-1.161l.017,0-.025,0a1.542,1.542,0,0,0-.232.026c-.195.025-.417.059-.531.078a7.573,7.573,0,0,1-1.271.035,18.491,18.491,0,0,1-5.093-1.121,26.034,26.034,0,0,1-3.511-1.624c-.394-.22-.786-.446-1.16-.7a2.028,2.028,0,0,0-1.048-.51,1.535,1.535,0,0,0-.982,2.841,21.37,21.37,0,0,0,7.463,3.715,20.318,20.318,0,0,0,5,.578,8.057,8.057,0,0,0,1.825-.2,1.6,1.6,0,0,0,1.109-1.954" transform="translate(-117.372 -242.625)" fill="#f18382"/>
            </g>
          </g>
        </g>
        <g id="Group_767" data-name="Group 767" transform="translate(21.575 225.385)" opacity="0.129">
          <g id="Group_766" data-name="Group 766">
            <g id="Group_765" data-name="Group 765" clip-path="url(#clip-path-23)">
              <path id="Path_1015" data-name="Path 1015" d="M39.117,261.307c-.42-.758-1.283-.845-2.014-1.138a13.4,13.4,0,0,1-1.484-.79c-.857-.534-1.721-1.059-2.524-1.672-2.768-2.21-3.392-3.7-5.273-6.947-.44-.847-.849-1.71-1.263-2.571-.275-.452-.406-1.042-.847-1.361a1.309,1.309,0,0,0-1.926,1.691c.925,1.88,1.727,4.152,2.352,5.463a13.69,13.69,0,0,0,2.248,4.113,21.807,21.807,0,0,0,5.658,4.5,14.461,14.461,0,0,0,2.217,1.06,3.224,3.224,0,0,0,1.563.283,1.765,1.765,0,0,0,1.293-2.63" transform="translate(-23.6 -246.539)" fill="#f18382"/>
            </g>
          </g>
        </g>
        <path id="Path_1016" data-name="Path 1016" d="M559.76,245.988c-13.37,0-29.357-.019-44.816-.037-15.5-.018-30.143-.036-42.427-.036a.306.306,0,0,1-.306-.3c-.231-17.661-.29-35.262-.346-52.282q-.019-5.766-.041-11.532a.306.306,0,0,1,.306-.307c5.294,0,11.754-.026,18.593-.053,22.514-.091,50.533-.2,69.108.423a.306.306,0,0,1,.3.308c-.078,8.659,0,17.5.069,26.054.1,12.3.211,25.02-.131,37.466a.3.3,0,0,1-.305.3m-86.941-.685c12.223,0,26.751.017,42.125.036,15.346.018,31.209.037,44.518.037.332-12.34.225-24.949.122-37.146-.071-8.456-.145-17.2-.072-25.766-18.565-.615-46.4-.5-68.788-.413-6.707.027-13.051.052-18.288.053q.021,5.614.039,11.225c.057,16.923.115,34.417.343,51.974" transform="translate(-40.484 -15.562)" fill="#f18382"/>
        <path id="Path_1017" data-name="Path 1017" d="M472.151,189.418a.306.306,0,0,1-.005-.612c28.389-.475,57.05-.511,87.619-.111a.306.306,0,0,1,0,.612h0c-30.564-.4-59.219-.364-87.6.111Z" transform="translate(-40.486 -16.167)" fill="#f18382"/>
        <path id="Path_1018" data-name="Path 1018" d="M482.444,227.221a2.628,2.628,0,1,1,2.793-2.624,2.715,2.715,0,0,1-2.793,2.624m0-4.635a2.018,2.018,0,1,0,2.181,2.011,2.1,2.1,0,0,0-2.181-2.011" transform="translate(-41.155 -19.046)" fill="#f18382"/>
        <path id="Path_1019" data-name="Path 1019" d="M490.568,207.207a2.628,2.628,0,1,1,2.793-2.624,2.715,2.715,0,0,1-2.793,2.624m0-4.635a2.018,2.018,0,1,0,2.181,2.011,2.1,2.1,0,0,0-2.181-2.011" transform="translate(-41.852 -17.329)" fill="#f18382"/>
        <path id="Path_1020" data-name="Path 1020" d="M504.418,217.057a2.628,2.628,0,1,1,2.793-2.624,2.715,2.715,0,0,1-2.793,2.624m0-4.635a2.018,2.018,0,1,0,2.181,2.011,2.1,2.1,0,0,0-2.181-2.011" transform="translate(-43.041 -18.174)" fill="#f18382"/>
        <path id="Path_1021" data-name="Path 1021" d="M513.545,203.552a2.628,2.628,0,1,1,2.793-2.624,2.715,2.715,0,0,1-2.793,2.624m0-4.635a2.018,2.018,0,1,0,2.181,2.011,2.1,2.1,0,0,0-2.181-2.011" transform="translate(-43.824 -17.015)" fill="#f18382"/>
        <path id="Path_1022" data-name="Path 1022" d="M483.48,221.36a.3.3,0,0,1-.116-.023.307.307,0,0,1-.167-.4l5.6-13.632a.307.307,0,0,1,.568.232l-5.6,13.633a.306.306,0,0,1-.283.189" transform="translate(-41.458 -17.771)" fill="#f18382"/>
        <path id="Path_1023" data-name="Path 1023" d="M501.7,212.617a.3.3,0,0,1-.182-.06l-8.464-6.254a.306.306,0,0,1,.364-.493l8.464,6.255a.306.306,0,0,1-.182.552" transform="translate(-42.294 -17.654)" fill="#f18382"/>
        <path id="Path_1024" data-name="Path 1024" d="M506.3,211.957a.3.3,0,0,1-.176-.057.305.305,0,0,1-.073-.426l5.709-8.054a.306.306,0,1,1,.5.354l-5.709,8.054a.3.3,0,0,1-.25.129" transform="translate(-43.416 -17.443)" fill="#f18382"/>
        <path id="Path_1025" data-name="Path 1025" d="M506.438,240.917h0l-23.176-.093a.306.306,0,0,1,0-.613h0l23.175.094a.306.306,0,0,1,0,.612" transform="translate(-41.439 -20.611)" fill="#f18382"/>
        <path id="Path_1026" data-name="Path 1026" d="M554.5,201.049h0l-23.176-.093a.306.306,0,0,1,0-.612h0l23.175.094a.306.306,0,0,1,0,.612" transform="translate(-45.562 -17.19)" fill="#f18382"/>
        <path id="Path_1027" data-name="Path 1027" d="M554.5,215.843h0l-23.176-.093a.306.306,0,0,1,0-.613h0l23.175.094a.306.306,0,0,1,0,.612" transform="translate(-45.562 -18.459)" fill="#f18382"/>
        <path id="Path_1028" data-name="Path 1028" d="M545.262,207.742h0l-13.941-.093a.307.307,0,0,1-.3-.308.315.315,0,0,1,.309-.3l13.94.094a.306.306,0,0,1,0,.612" transform="translate(-45.562 -17.764)" fill="#f18382"/>
        <path id="Path_1029" data-name="Path 1029" d="M496.979,234.611h0l-13.305-.093a.306.306,0,0,1,0-.613h0l13.3.094a.306.306,0,0,1,0,.612" transform="translate(-41.474 -20.07)" fill="#f18382"/>
        <path id="Path_1030" data-name="Path 1030" d="M541.314,224.857h0l-9.993-.094a.306.306,0,0,1,0-.612h0l9.992.094a.306.306,0,0,1,0,.612" transform="translate(-45.562 -19.233)" fill="#f18382"/>
        <g id="Group_770" data-name="Group 770" transform="translate(431.843 172.77)" opacity="0.129">
          <g id="Group_769" data-name="Group 769">
            <g id="Group_768" data-name="Group 768" clip-path="url(#clip-path-24)">
              <path id="Path_1031" data-name="Path 1031" d="M558.61,189.4a.876.876,0,0,0-.147,0H558.2c-.156,0-.313,0-.468-.008l-.584-.085a31.632,31.632,0,0,0-5.752-.216c-2.2.183-4.408.151-6.615.116-3.684.061-7.362-.206-11.046-.191-4.343.006-8.685.208-13.027.041-6.484-.178-12.968.035-19.452.04-1.272.011-2.538.1-3.8.2-1.656-.107-3.311-.221-4.971-.246-2.036-.024-4.067.188-6.1.21a24.273,24.273,0,0,1-2.813-.042c-.153-.019-.045,0,.053.008a5.449,5.449,0,0,0-.879-.117.511.511,0,0,0-.458.4c-.861.006-1.723,0-2.584-.056-1.728-.075-3.456-.14-5.184-.049-.314.012-.63.025-.944.026a1.455,1.455,0,0,0-.659.08.893.893,0,0,0,.345,1.713c1.1-.013,2.2-.09,3.308-.1,1.465.009,2.929.075,4.393.112,2.231-.032,4.461.034,6.689.131,1.716.056,3.433.026,5.149.066,2.475.007,4.937-.289,7.407-.4,2.818-.09,5.641-.085,8.461-.15,5.412-.087,10.824.045,16.235.146,3.452,0,6.9-.114,10.356-.076,2.12-.006,4.237.109,6.356.165,2.2,0,4.4.03,6.6.064,2.385-.056,4.766-.258,7.154-.216a15.5,15.5,0,0,1,2.91.183h0a.928.928,0,0,0,.687-.031.9.9,0,0,0-.347-1.727" transform="translate(-472.374 -188.985)" fill="#f18382"/>
            </g>
          </g>
        </g>
        <path id="Path_1032" data-name="Path 1032" d="M409.239,144.091a.451.451,0,0,1-.45-.424,150.534,150.534,0,0,1-.038-16.7.45.45,0,0,1,.9.048,150.06,150.06,0,0,0,.037,16.6.45.45,0,0,1-.423.475h-.026" transform="translate(-35.054 -10.858)" fill="#f18382"/>
        <path id="Path_1033" data-name="Path 1033" d="M399.058,148.092a.451.451,0,0,1-.45-.441c-.077-3.587.02-7.218.288-10.791a.45.45,0,0,1,.9.068c-.265,3.544-.361,7.145-.285,10.7a.45.45,0,0,1-.441.46Z" transform="translate(-34.199 -11.707)" fill="#f18382"/>
        <path id="Path_1034" data-name="Path 1034" d="M419.173,141.019a.45.45,0,0,1-.45-.441c-.077-3.585.02-7.215.288-10.791a.451.451,0,0,1,.9.068c-.266,3.547-.362,7.149-.286,10.7a.45.45,0,0,1-.441.46Z" transform="translate(-35.925 -11.1)" fill="#f18382"/>
        <path id="Path_1035" data-name="Path 1035" d="M391.106,139.11h-.012a.45.45,0,0,1-.438-.462l.188-7.542a.45.45,0,1,1,.9.023l-.188,7.542a.45.45,0,0,1-.45.439" transform="translate(-33.519 -11.212)" fill="#f18382"/>
        <path id="Path_1036" data-name="Path 1036" d="M580.33,235.495a.294.294,0,0,1-.069-.008.311.311,0,0,1-.2-.161c-1.2-2.405-4.02-6.44-9.435-6.44-4.894,0-8.8,2.035-10.731,5.584a.309.309,0,0,1-.194.151.3.3,0,0,1-.243-.041q-1.81-1.185-3.63-2.357l-.852-.552q-.92-.6-1.843-1.186a.306.306,0,0,1-.1-.416,16.232,16.232,0,0,1,5.09-5.5c4.994-2.9,7.958-2.991,12.061-3.12l.411-.013h.031c2.6.186,11.411,1.425,15.877,9.573a.306.306,0,0,1-.11.409c-.583.355-1.1.677-1.577.984-1.339.863-2.745,1.854-4.3,3.031a.31.31,0,0,1-.185.062m-9.71-7.22c5.5,0,8.466,3.9,9.816,6.452,1.451-1.091,2.778-2.02,4.046-2.838.411-.266.852-.542,1.338-.839-4.351-7.632-12.716-8.818-15.225-9l-.395.013c-4.013.126-6.912.218-11.773,3.038a15.6,15.6,0,0,0-4.718,5.032q.8.512,1.593,1.026l.853.552q1.681,1.087,3.36,2.18c2.087-3.574,6.113-5.615,11.106-5.615m14.027,3.871h0Z" transform="translate(-47.448 -19)" fill="#f18382"/>
        <path id="Path_1037" data-name="Path 1037" d="M566.006,261.742a.29.29,0,0,1-.048,0c-5.536-.88-12.645-3.546-15.079-11.246a23.824,23.824,0,0,1-.443-13.784.307.307,0,0,1,.361-.217c1.375.308,2.753.688,4.086,1.057,1.109.306,2.256.623,3.392.9a.3.3,0,0,1,.228.362,13.911,13.911,0,0,0-.293,2.274q-.015.321-.032.642a17.976,17.976,0,0,0,.037,3.439,11.274,11.274,0,0,0,3.063,6.257,8.179,8.179,0,0,0,2.685,1.9,12.57,12.57,0,0,0,3.524.783.306.306,0,0,1,.269.367c-.36,1.714-.665,3.3-.929,4.853l-.005.026c-.2.761-.366,1.465-.515,2.151a.306.306,0,0,1-.3.241m-15.058-24.588a23.29,23.29,0,0,0,.514,13.154c2.3,7.272,8.986,9.881,14.307,10.779.134-.6.283-1.22.455-1.879.248-1.455.53-2.941.861-4.533a12.609,12.609,0,0,1-3.357-.789,8.672,8.672,0,0,1-2.893-2.044,11.891,11.891,0,0,1-3.23-6.6,18.671,18.671,0,0,1-.041-3.555q.017-.318.032-.638a14.448,14.448,0,0,1,.247-2.082c-1.05-.258-2.1-.549-3.125-.831-1.233-.341-2.5-.692-3.771-.985m15.575,22.119h0Z" transform="translate(-47.159 -20.291)" fill="#f18382"/>
        <path id="Path_1038" data-name="Path 1038" d="M574.374,262.234a.307.307,0,0,1-.3-.272l-.014-.123q-.266-2.366-.527-4.733-.111-1.027-.219-2.054l-.049-.466a.306.306,0,0,1,.068-.226.3.3,0,0,1,.206-.111c.182-.018.363-.037.544-.06a11.254,11.254,0,0,0,3.758-1.072,9.577,9.577,0,0,0,4.254-5.256,18.5,18.5,0,0,0,1.1-3.745,9.866,9.866,0,0,0,.13-2.085,12.322,12.322,0,0,0-.358-2.121.3.3,0,0,1,.224-.372c2.267-.55,4.6-.963,6.8-1.338a.306.306,0,0,1,.352.245,27.908,27.908,0,0,1,.463,5.171,21.277,21.277,0,0,1-3.9,11.211,16.427,16.427,0,0,1-12.1,7.377c-.129.011-.266.021-.41.03h-.019m-.472-7.408.017.162q.108,1.026.218,2.052.247,2.282.507,4.562l.106-.008a15.837,15.837,0,0,0,11.656-7.118,20.474,20.474,0,0,0,3.788-10.861,27.47,27.47,0,0,0-.4-4.761c-2,.343-4.112.721-6.165,1.207a12.557,12.557,0,0,1,.3,1.926,10.541,10.541,0,0,1-.137,2.234,19.087,19.087,0,0,1-1.139,3.869,10.155,10.155,0,0,1-4.544,5.572,11.847,11.847,0,0,1-3.958,1.134l-.254.03" transform="translate(-49.187 -20.438)" fill="#f18382"/>
        <path id="Path_1039" data-name="Path 1039" d="M576.95,262.416a.1.1,0,0,1-.071-.029l-1.367-1.335a.1.1,0,1,1,.143-.145l1.367,1.335a.1.1,0,0,1-.071.175" transform="translate(-49.378 -22.384)" fill="#f18382"/>
        <path id="Path_1040" data-name="Path 1040" d="M578.726,261.836a.1.1,0,0,1-.066-.024c-1.236-1.047-2.451-2.152-3.613-3.285a.1.1,0,0,1,0-.144.1.1,0,0,1,.144,0c1.158,1.13,2.37,2.232,3.6,3.275a.1.1,0,0,1,.012.144.1.1,0,0,1-.078.036" transform="translate(-49.338 -22.167)" fill="#f18382"/>
        <path id="Path_1041" data-name="Path 1041" d="M580.438,261a.1.1,0,0,1-.069-.027l-4.523-4.07a.1.1,0,0,1,.136-.152l4.523,4.07a.1.1,0,0,1,.007.144.1.1,0,0,1-.075.034" transform="translate(-49.406 -22.028)" fill="#f18382"/>
        <path id="Path_1042" data-name="Path 1042" d="M582.423,259.792a.1.1,0,0,1-.062-.022c-1.432-1.11-2.831-2.295-4.161-3.521a.1.1,0,0,1,.138-.15c1.326,1.222,2.722,2.4,4.148,3.51a.1.1,0,0,1-.062.183" transform="translate(-49.608 -21.972)" fill="#f18382"/>
        <path id="Path_1043" data-name="Path 1043" d="M584.011,258.345a.1.1,0,0,1-.057-.017c-1.464-.987-2.894-2.058-4.255-3.183a.1.1,0,1,1,.13-.157c1.355,1.121,2.781,2.188,4.238,3.171a.1.1,0,0,1,.027.142.1.1,0,0,1-.084.045" transform="translate(-49.736 -21.877)" fill="#f18382"/>
        <path id="Path_1044" data-name="Path 1044" d="M585.465,256.908a.107.107,0,0,1-.059-.018c-1.364-.95-2.725-1.948-4.044-2.967a.1.1,0,0,1,.125-.162c1.316,1.017,2.674,2.014,4.036,2.962a.1.1,0,0,1-.059.186" transform="translate(-49.879 -21.771)" fill="#f18382"/>
        <path id="Path_1045" data-name="Path 1045" d="M586.665,255.265a.105.105,0,0,1-.054-.016c-1.382-.87-2.773-1.768-4.132-2.668a.1.1,0,0,1,.113-.17c1.358.9,2.746,1.8,4.127,2.665a.1.1,0,0,1-.054.188" transform="translate(-49.974 -21.656)" fill="#f18382"/>
        <path id="Path_1046" data-name="Path 1046" d="M587.7,253.454a.109.109,0,0,1-.052-.014l-3.913-2.314a.1.1,0,0,1-.036-.139.1.1,0,0,1,.14-.037l3.913,2.313a.1.1,0,0,1-.052.19" transform="translate(-50.082 -21.531)" fill="#f18382"/>
        <path id="Path_1047" data-name="Path 1047" d="M588.473,251.769a.108.108,0,0,1-.049-.013l-4.009-2.23a.1.1,0,0,1-.039-.139.1.1,0,0,1,.138-.039l4.009,2.23a.1.1,0,0,1-.049.191" transform="translate(-50.14 -21.394)" fill="#f18382"/>
        <path id="Path_1048" data-name="Path 1048" d="M589.288,249.893a.1.1,0,0,1-.049-.013l-4.032-2.212a.1.1,0,1,1,.1-.178l4.033,2.212a.1.1,0,0,1-.049.191" transform="translate(-50.208 -21.234)" fill="#f18382"/>
        <path id="Path_1049" data-name="Path 1049" d="M589.912,248.055a.1.1,0,0,1-.051-.014c-1.425-.83-2.884-1.646-4.335-2.424a.1.1,0,1,1,.1-.18c1.454.78,2.914,1.6,4.342,2.427a.1.1,0,0,1-.051.19" transform="translate(-50.235 -21.058)" fill="#f18382"/>
        <path id="Path_1050" data-name="Path 1050" d="M590.28,245.906a.106.106,0,0,1-.044-.01l-4.54-2.19a.1.1,0,1,1,.089-.183l4.539,2.189a.1.1,0,0,1-.044.194" transform="translate(-50.249 -20.894)" fill="#f18382"/>
        <path id="Path_1051" data-name="Path 1051" d="M590.313,243.874a.09.09,0,0,1-.043-.01c-1.537-.722-3.089-1.473-4.614-2.232a.1.1,0,0,1-.046-.137.1.1,0,0,1,.136-.046c1.524.758,3.074,1.508,4.609,2.231a.1.1,0,0,1-.043.194" transform="translate(-50.246 -20.716)" fill="#f18382"/>
        <path id="Path_1052" data-name="Path 1052" d="M590.467,241.944a.1.1,0,0,1-.042-.009,32.091,32.091,0,0,1-2.933-1.5.1.1,0,1,1,.1-.177,31.686,31.686,0,0,0,2.914,1.495.1.1,0,0,1-.042.195" transform="translate(-50.404 -20.613)" fill="#f18382"/>
        <path id="Path_1053" data-name="Path 1053" d="M590.559,240.326a.093.093,0,0,1-.041-.009l-.819-.362a.1.1,0,1,1,.082-.187l.819.362a.1.1,0,0,1-.041.2" transform="translate(-50.592 -20.572)" fill="#f18382"/>
        <g id="Group_773" data-name="Group 773" transform="translate(524.876 217.862)" opacity="0.129">
          <g id="Group_772" data-name="Group 772">
            <g id="Group_771" data-name="Group 771" clip-path="url(#clip-path-25)">
              <path id="Path_1054" data-name="Path 1054" d="M590.4,241.115c-.024-.592-.1-1.182-.126-1.774-.039-.294.068-.653-.165-.884a.516.516,0,0,0-.869.312.746.746,0,0,0-.725.934,10.188,10.188,0,0,1,.25,3.2,18.477,18.477,0,0,1-1.393,6.117,15.936,15.936,0,0,1-1.038,2.356,18.061,18.061,0,0,1-2,3.456c-.206.252-.418.5-.634.747a13.532,13.532,0,0,1-3.138,2.488,14.965,14.965,0,0,1-3.543,1.642,7.663,7.663,0,0,1-1.98.325.671.671,0,0,0-.814.351.557.557,0,0,0,0,.463.749.749,0,0,0,.857,1.053,2.753,2.753,0,0,0,.44-.2c.28-.1.578-.133.864-.209.336-.1.658-.234,1-.312.059-.014.117-.023.176-.033a7.177,7.177,0,0,0,1.491-.211,13.218,13.218,0,0,0,4.767-3.17,19.479,19.479,0,0,0,2.475-2.871,30.07,30.07,0,0,0,1.656-3.071,22.886,22.886,0,0,0,1.3-3.084,18.171,18.171,0,0,0,.947-3.341,14.065,14.065,0,0,0,.158-3.478,1.848,1.848,0,0,0,.048-.8" transform="translate(-574.139 -238.31)" fill="#f18382"/>
            </g>
          </g>
        </g>
        <g id="Group_776" data-name="Group 776" transform="translate(534.456 207.479)" opacity="0.129">
          <g id="Group_775" data-name="Group 775">
            <g id="Group_774" data-name="Group 774" clip-path="url(#clip-path-26)">
              <path id="Path_1055" data-name="Path 1055" d="M588.378,231.368a10.315,10.315,0,0,0-2.72-4.235.608.608,0,0,0-.859.859,6.9,6.9,0,0,1,1.6,2.52c.209.537.425,1.072.583,1.626.346,1.154,2.039.587,1.4-.772" transform="translate(-584.618 -226.952)" fill="#f18382"/>
            </g>
          </g>
        </g>
        <g id="Group_779" data-name="Group 779" transform="translate(510.79 237.673)" opacity="0.129">
          <g id="Group_778" data-name="Group 778">
            <g id="Group_777" data-name="Group 777" clip-path="url(#clip-path-27)">
              <path id="Path_1056" data-name="Path 1056" d="M566.634,261.682a5.282,5.282,0,0,1-2.238-.237c-.922-.241-1.855-.446-2.771-.711-.782-.191-1.947-.666-2.286-.745a.542.542,0,0,0-.343,1c.563.3,1.111.641,1.7.893.488.214,1.013.331,1.514.511a11.906,11.906,0,0,0,3.377.835,4.322,4.322,0,0,0,1.042-.04.74.74,0,0,0,.461-.165.753.753,0,0,0-.456-1.345" transform="translate(-558.73 -259.98)" fill="#f18382"/>
            </g>
          </g>
        </g>
        <path id="Path_1057" data-name="Path 1057" d="M555.754,266.042a.323.323,0,0,1-.088-.013,14.229,14.229,0,0,1-7.9-6.03.306.306,0,1,1,.519-.323,13.615,13.615,0,0,0,7.553,5.767.306.306,0,0,1-.088.6" transform="translate(-46.996 -22.268)" fill="#f18382"/>
        <path id="Path_1058" data-name="Path 1058" d="M551.238,269.556a.27.27,0,0,1-.047,0,9.05,9.05,0,0,1-4.179-1.8.306.306,0,0,1,.376-.483,8.438,8.438,0,0,0,3.9,1.679.306.306,0,0,1-.046.608" transform="translate(-46.925 -22.927)" fill="#f18382"/>
      </g>
    </g>
  </g>
</svg>
