<svg id="Group_12" data-name="Group 12" xmlns="http://www.w3.org/2000/svg" xmlns:xlink="http://www.w3.org/1999/xlink" width="96.728" height="68" viewBox="0 0 96.728 68">
  <defs>
    <clipPath id="clip-path">
      <rect id="Rectangle_8" data-name="Rectangle 8" width="96.728" height="68" fill="none"/>
    </clipPath>
    <clipPath id="clip-path-3">
      <rect id="Rectangle_3" data-name="Rectangle 3" width="65.878" height="55.177" fill="none"/>
    </clipPath>
  </defs>
  <g id="Group_11" data-name="Group 11" clip-path="url(#clip-path)">
    <path id="Path_8" data-name="Path 8" d="M33.027,0,.089,55.177H45.772L48.7,50.27l2.929,4.907H65.966Z" transform="translate(-0.064 0)" fill="#7b1f1f"/>
    <g id="Group_10" data-name="Group 10">
      <g id="Group_9" data-name="Group 9" clip-path="url(#clip-path)">
        <g id="Group_5" data-name="Group 5" transform="translate(30.843)" opacity="0.9">
          <g id="Group_4" data-name="Group 4">
            <g id="Group_3" data-name="Group 3" clip-path="url(#clip-path-3)">
              <path id="Path_9" data-name="Path 9" d="M142.264,0,109.325,55.177h14.866l2.929-4.907,2.929,4.907H175.2Z" transform="translate(-109.325 0)" fill="#f64f4f"/>
            </g>
          </g>
        </g>
        <g id="Group_8" data-name="Group 8" transform="translate(15.699)" opacity="0.59">
          <g id="Group_7" data-name="Group 7">
            <g id="Group_6" data-name="Group 6" clip-path="url(#clip-path-3)">
              <path id="Path_10" data-name="Path 10" d="M88.584,0,55.646,55.177h30.01l2.929-4.907,2.929,4.907h30.01Z" transform="translate(-55.645 0)" fill="#e83030"/>
            </g>
          </g>
        </g>
        <path id="Path_11" data-name="Path 11" d="M2.486,218.228a.835.835,0,0,0,.829-.829.637.637,0,0,0-.417-.676c-.59-.219-.447-.168-1.022-.366a3.267,3.267,0,0,1-1.54-1.134A1.862,1.862,0,0,1,0,214.09a2.393,2.393,0,0,1,.732-1.754,2.4,2.4,0,0,1,1.759-.732,2.392,2.392,0,0,1,1.754.732,2.393,2.393,0,0,1,.732,1.754H3.325a.826.826,0,1,0-1.652.005.744.744,0,0,0,.356.671,2.43,2.43,0,0,0,1.017.427,3.161,3.161,0,0,1,1.591,1.078,1.807,1.807,0,0,1,.346,1.139,2.4,2.4,0,0,1-.732,1.759A2.394,2.394,0,0,1,2.5,219.9a2.4,2.4,0,0,1-1.759-.732,2.4,2.4,0,0,1-.732-1.759H1.663a.829.829,0,0,0,.829.829Z" transform="translate(0 -151.906)" fill="#575757"/>
        <path id="Path_12" data-name="Path 12" d="M28.853,211.8H30.9v1.637H28.853V220H27.211v-6.558H25.162V211.8h3.691Z" transform="translate(-18.063 -152.048)" fill="#575757"/>
        <path id="Path_13" data-name="Path 13" d="M59.8,211.8v4.942a3.3,3.3,0,1,1-6.594,0V211.8h1.652v4.937a1.649,1.649,0,0,0,1.642,1.642,1.6,1.6,0,0,0,1.159-.483,1.567,1.567,0,0,0,.488-1.159V211.8Z" transform="translate(-38.196 -152.048)" fill="#575757"/>
        <path id="Path_14" data-name="Path 14" d="M86.644,211.855a4.168,4.168,0,0,1,2.99,1.2,4.346,4.346,0,0,1,0,5.775,4.184,4.184,0,0,1-2.99,1.2H84.621V211.86h2.023Zm.01,6.538a2.408,2.408,0,0,0,1.769-.666,2.46,2.46,0,0,0-1.784-4.24h-.376v4.906h.392Z" transform="translate(-60.748 -152.086)" fill="#575757"/>
        <rect id="Rectangle_5" data-name="Rectangle 5" width="1.642" height="8.195" transform="translate(32.06 59.754)" fill="#575757"/>
        <path id="Path_15" data-name="Path 15" d="M133.887,212.877a4.118,4.118,0,1,1-2.928-1.22,4,4,0,0,1,2.928,1.22m-4.682,1.164a2.481,2.481,0,1,0,3.508,3.508,2.481,2.481,0,1,0-3.508-3.508" transform="translate(-91.041 -151.944)" fill="#575757"/>
        <path id="Path_16" data-name="Path 16" d="M179.08,216.741l4-5.48v8.348h-1.642v-3.381l-2.354,3.248-2.354-3.248v3.381h-1.642V211.26Z" transform="translate(-125.689 -151.659)" fill="#575757"/>
        <path id="Path_17" data-name="Path 17" d="M217.834,212.877a4.118,4.118,0,1,1-2.928-1.22,4,4,0,0,1,2.928,1.22m-4.682,1.164a2.481,2.481,0,1,0,3.508,3.508,2.481,2.481,0,1,0-3.508-3.508" transform="translate(-151.305 -151.944)" fill="#575757"/>
        <path id="Path_18" data-name="Path 18" d="M249.747,218.228a.836.836,0,0,0,.829-.829.638.638,0,0,0-.417-.676c-.59-.219-.447-.168-1.022-.366a3.269,3.269,0,0,1-1.54-1.134,1.862,1.862,0,0,1-.336-1.134,2.489,2.489,0,0,1,4.977,0h-1.652a.826.826,0,0,0-1.653.005.744.744,0,0,0,.356.671,2.43,2.43,0,0,0,1.017.427,3.161,3.161,0,0,1,1.591,1.078,1.807,1.807,0,0,1,.346,1.139,2.489,2.489,0,0,1-4.977,0h1.657a.829.829,0,0,0,.829.829Z" transform="translate(-177.503 -151.906)" fill="#575757"/>
        <path id="Path_19" data-name="Path 19" d="M273.144,218.343c-.183.417-.371.829-.559,1.246h-1.764l3.716-8.327,3.727,8.327h-1.769c-.183-.412-.366-.829-.549-1.24h-2.791Zm2.13-1.444-.722-1.7-.727,1.7Z" transform="translate(-194.417 -151.66)" fill="#575757"/>
        <rect id="Rectangle_6" data-name="Rectangle 6" width="1.642" height="8.195" transform="translate(85.938 59.754)" fill="#575757"/>
        <path id="Path_20" data-name="Path 20" d="M321.928,211.677a3.98,3.98,0,0,1,1.606.325,4.391,4.391,0,0,1,1.327.885l-1.169,1.169a2.408,2.408,0,0,0-1.754-.732,2.376,2.376,0,0,0-1.754.732,2.481,2.481,0,1,0,3.513,3.5l1.169,1.169a4.316,4.316,0,0,1-1.327.89,4.14,4.14,0,1,1-1.606-7.961Z" transform="translate(-228.138 -151.944)" fill="#575757"/>
      </g>
    </g>
  </g>
</svg>
